<svg width="406" height="406" viewBox="0 0 134 134" fill="none" xmlns="http://www.w3.org/2000/svg">
<path d="M65.8451 26.5261C65.8451 21.1427 70.207 16.78 75.5897 16.78C80.9711 16.78 85.3346 21.1427 85.3346 26.5261C85.3346 31.9075 80.9711 36.2709 75.5897 36.2709C70.207 36.2709 65.8451 31.9075 65.8451 26.5261ZM96.2024 31.0789V21.9712H91.7928C91.43 20.6735 90.9136 19.4385 90.2656 18.2879L93.3852 15.1682L86.9454 8.72897L83.8254 11.8488C82.6752 11.1997 81.4402 10.6852 80.1429 10.3206V5.91064H71.0361V10.3213H71.0358C69.7385 10.6852 68.5035 11.2007 67.3537 11.8488L64.2333 8.72897L57.7938 15.1682L60.9142 18.289C60.2661 19.4385 59.7501 20.6735 59.3872 21.9712H54.9763V31.0789H59.3859C59.7503 32.3766 60.2649 33.6117 60.9142 34.7613L57.7938 37.8821L64.2333 44.3216L67.353 41.2022C68.5032 41.8501 69.7385 42.3663 71.0358 42.7292H71.0361V47.1395H80.1429V42.7305C81.4406 42.366 82.6752 41.8515 83.8257 41.2022C83.8257 41.2018 83.8257 41.2018 83.8257 41.2018L86.9454 44.3216L93.3852 37.8821L90.2656 34.7622C90.9136 33.6128 91.4291 32.3776 91.7935 31.0789H96.2024Z" fill="white"/>
<mask id="mask0_86_51" style="mask-type:luminance" maskUnits="userSpaceOnUse" x="54" y="5" width="43" height="43">
<path d="M54.8506 5.81836H96.3013V47.2394H54.8506V5.81836Z" fill="white"/>
</mask>
<g mask="url(#mask0_86_51)">
<path d="M75.5897 16.8724C70.2675 16.8724 65.9378 21.203 65.9378 26.5261C65.9378 31.8481 70.2675 36.1784 75.5897 36.1784C80.9122 36.1784 85.2419 31.8481 85.2419 26.5261C85.2419 21.203 80.9122 16.8724 75.5897 16.8724ZM75.5897 36.3635C70.1657 36.3635 65.7524 31.95 65.7524 26.5261C65.7524 21.1008 70.1657 16.6877 75.5897 16.6877C81.0141 16.6877 85.4273 21.1008 85.4273 26.5261C85.4273 31.95 81.0141 36.3635 75.5897 36.3635ZM71.1288 47.0468H80.0502V42.6603L80.1177 42.6413C81.3986 42.2814 82.6309 41.7701 83.7801 41.1214L83.8413 41.0866L86.9454 44.1908L93.2537 37.882L90.1505 34.7779L90.1852 34.7166C90.8353 33.5629 91.3463 32.3303 91.7046 31.0534L91.7237 30.9862H96.11V22.0639H91.7221L91.7029 21.9965C91.3466 20.7215 90.8358 19.4889 90.1848 18.3333L90.1501 18.2723L93.2537 15.1682L86.9454 8.85974L83.841 11.9645L83.7798 11.9297C82.6306 11.2808 81.3986 10.7697 80.1177 10.4095L80.0502 10.3912V6.00401H71.1288V10.3922L71.0611 10.4113C69.7861 10.768 68.5539 11.2784 67.399 11.9297L67.3377 11.9639L64.2334 8.85974L57.925 15.1682L61.0294 18.2734L60.9946 18.3342C60.3439 19.49 59.8329 20.7222 59.4761 21.9965L59.4574 22.0639H55.069V30.9862H59.456L59.4751 31.0534C59.8348 32.3347 60.3458 33.5664 60.9949 34.7159L61.0294 34.7769L57.925 37.882L64.2334 44.1908L67.3374 41.0866L67.3984 41.1214C68.5539 41.7725 69.7861 42.2835 71.0611 42.6399L71.1288 42.659V47.0468ZM80.2356 47.2322H70.9435V42.7993C69.701 42.446 68.4987 41.9476 67.3691 41.3173L64.2334 44.4528L57.663 37.882L60.7991 34.7455C60.1704 33.6213 59.6716 32.4192 59.3157 31.1712H54.8838V21.879H59.3171C59.67 20.6368 60.1684 19.4351 60.7986 18.3046L57.663 15.1682L64.2334 8.59816L67.3694 11.7336C68.499 11.104 69.701 10.6048 70.9435 10.2515V5.81836H80.2356V10.2508C81.4835 10.6065 82.6854 11.1056 83.8094 11.7336L86.9454 8.59816L93.5161 15.1682L90.3808 18.3037C91.011 19.434 91.5095 20.6361 91.8623 21.879H96.2957V31.1712H91.8644C91.5095 32.4158 91.0107 33.6178 90.3811 34.7466L93.5161 37.882L86.9454 44.4528L83.8101 41.3169C82.6854 41.9456 81.4839 42.4443 80.2356 42.8007V47.2322Z" fill="#2A32B4"/>
</g>
<path d="M129.939 31.2882V38.5324C129.939 40.317 128.492 41.7633 126.707 41.7633H108.595L104.492 45.8664V31.2882C104.492 29.5036 105.939 28.0565 107.724 28.0565H126.707C128.492 28.0565 129.939 29.5036 129.939 31.2882Z" fill="white"/>
<path d="M107.724 28.1455C105.991 28.1455 104.581 29.555 104.581 31.2882V45.6517L108.558 41.6747H126.707C128.441 41.6747 129.85 40.2649 129.85 38.5324V31.2882C129.85 29.555 128.441 28.1455 126.707 28.1455H107.724ZM104.403 46.0814V31.2882C104.403 29.4576 105.893 27.9677 107.724 27.9677H126.707C128.538 27.9677 130.028 29.4576 130.028 31.2882V38.5324C130.028 40.3633 128.538 41.8526 126.707 41.8526H108.632L104.403 46.0814Z" fill="#222222"/>
<path d="M121.345 31.7555H112.437V30.4674H121.345V31.7555Z" fill="#4BBBFA"/>
<path d="M126.973 33.9169H112.437V32.6287H126.973V33.9169Z" fill="white"/>
<path d="M112.525 33.828H126.885V32.7176H112.525V33.828ZM127.062 34.0058H112.348V32.5398H127.062V34.0058Z" fill="#222222"/>
<path d="M110.315 30.9822C110.315 31.6336 109.786 32.1614 109.135 32.1614C108.484 32.1614 107.956 31.6336 107.956 30.9822C107.956 30.3304 108.484 29.8027 109.135 29.8027C109.786 29.8027 110.315 30.3304 110.315 30.9822Z" fill="white"/>
<path d="M109.135 29.8898C108.533 29.8898 108.043 30.3795 108.043 30.9822C108.043 31.5838 108.533 32.0741 109.135 32.0741C109.737 32.0741 110.227 31.5838 110.227 30.9822C110.227 30.3795 109.737 29.8898 109.135 29.8898ZM109.135 32.2485C108.437 32.2485 107.868 31.6799 107.868 30.9822C107.868 30.2834 108.437 29.7155 109.135 29.7155C109.833 29.7155 110.402 30.2834 110.402 30.9822C110.402 31.6799 109.833 32.2485 109.135 32.2485Z" fill="#2A32B4"/>
<path d="M109.119 31.3144L107.894 30.0898L108.017 29.9659L109.119 31.0673L110.813 29.3738L110.937 29.4975L109.119 31.3144Z" fill="#2A32B4"/>
<path d="M121.345 37.0412H112.437V35.7537H121.345V37.0412Z" fill="#4BBBFA"/>
<path d="M126.973 39.2026H112.437V37.9141H126.973V39.2026Z" fill="white"/>
<path d="M112.525 39.1133H126.885V38.0034H112.525V39.1133ZM127.062 39.2915H112.348V37.8251H127.062V39.2915Z" fill="#222222"/>
<path d="M110.315 36.2675C110.315 36.9188 109.786 37.4466 109.135 37.4466C108.484 37.4466 107.956 36.9188 107.956 36.2675C107.956 35.6161 108.484 35.0883 109.135 35.0883C109.786 35.0883 110.315 35.6161 110.315 36.2675Z" fill="white"/>
<path d="M109.135 35.1756C108.533 35.1756 108.043 35.6648 108.043 36.2675C108.043 36.8696 108.533 37.3594 109.135 37.3594C109.737 37.3594 110.227 36.8696 110.227 36.2675C110.227 35.6648 109.737 35.1756 109.135 35.1756ZM109.135 37.5338C108.437 37.5338 107.868 36.9652 107.868 36.2675C107.868 35.5691 108.437 35.0011 109.135 35.0011C109.833 35.0011 110.402 35.5691 110.402 36.2675C110.402 36.9652 109.833 37.5338 109.135 37.5338Z" fill="#2A32B4"/>
<path d="M109.119 36.6L107.894 35.3751L108.017 35.2515L109.119 36.3529L110.813 34.6594L110.937 34.783L109.119 36.6Z" fill="#2A32B4"/>
<path d="M119.138 52.2766L115.511 57.9868H117.199V63.9234H121.077V57.9868H122.766L119.138 52.2766Z" fill="#4BBBFA"/>
<path d="M116.128 68.4831L113.632 64.5538L111.136 68.4831H112.298V72.5682H114.967V68.4831H116.128Z" fill="#4BBBFA"/>
<path d="M123.454 73.1765L122.121 71.0758L120.786 73.1765H121.408V75.3605H122.834V73.1765H123.454Z" fill="#4BBBFA"/>
<path d="M126.44 60.5468L123.944 64.4757H125.105V68.5611H127.774V64.4757H128.936L126.44 60.5468Z" fill="#4BBBFA"/>
<path d="M66.2693 119.765C66.2693 124.366 62.5395 128.095 57.939 128.095C53.338 128.095 49.6086 124.366 49.6086 119.765C49.6086 115.164 53.338 111.434 57.939 111.434C62.5395 111.434 66.2693 115.164 66.2693 119.765Z" fill="#222222"/>
<path d="M92.2867 51.0255C92.2867 32.0547 76.9087 16.6761 57.9392 16.6761C38.9808 16.6761 23.5425 32.1576 23.5919 51.1169C23.6151 59.9523 26.9742 68.0028 32.4758 74.076C40.04 82.4256 44.2087 93.3028 44.2087 104.569V104.58H71.6697V104.57C71.6697 93.2391 75.9633 82.3765 83.5254 73.9391C88.9729 67.8609 92.2867 59.8307 92.2867 51.0255Z" fill="#4BBBFA"/>
<path d="M44.2957 104.493H71.5823C71.6017 93.2765 75.8184 82.4074 83.4602 73.8807C89.0954 67.5935 92.1993 59.4767 92.1993 51.0255C92.1993 32.1333 76.8302 16.7633 57.939 16.7633C48.7941 16.7633 40.1857 20.3448 33.7001 26.8477C27.2142 33.351 23.6551 41.9697 23.679 51.1165C23.7012 59.6006 26.8484 67.7335 32.5404 74.0174C40.1039 82.3663 44.277 93.1869 44.2957 104.493ZM71.7568 104.667H44.1212V104.569C44.1212 93.2793 39.9625 82.4701 32.411 74.1346C26.6899 67.8187 23.527 59.6442 23.5045 51.1169C23.4926 46.4717 24.3964 41.9584 26.1919 37.7021C27.9248 33.5932 30.4096 29.8997 33.5768 26.724C36.7438 23.5491 40.4304 21.0548 44.5339 19.311C48.7842 17.5047 53.2945 16.5889 57.939 16.5889C62.5876 16.5889 67.0972 17.4995 71.3425 19.2954C75.4429 21.0292 79.1254 23.5126 82.2879 26.675C85.4501 29.8377 87.933 33.521 89.6674 37.621C91.4632 41.8669 92.3738 46.3766 92.3738 51.0255C92.3738 59.5195 89.2541 67.6776 83.5902 73.9973C75.9591 82.5117 71.7568 93.3692 71.7568 104.57V104.667Z" fill="#2A32B4"/>
<path d="M68.8831 120.779H46.9951C45.5758 120.779 44.3292 119.621 44.2086 118.168L42.5862 96.9313C42.5862 96.9565 73.2919 96.9565 73.2919 96.9313L71.6696 118.168C71.549 119.621 70.3024 120.779 68.8831 120.779Z" fill="white"/>
<path d="M42.6824 97.023L44.2972 118.161C44.413 119.555 45.6231 120.69 46.9951 120.69H68.8832C70.2551 120.69 71.4652 119.555 71.5808 118.16L73.1956 97.023C73.1377 97.023 73.0545 97.0236 72.9476 97.0247C72.7227 97.0254 72.3926 97.027 71.9728 97.028C71.1331 97.0308 69.9335 97.0325 68.4942 97.0342C65.7097 97.0375 61.9612 97.0393 57.9391 97.0393C53.917 97.0393 50.1685 97.0375 47.3837 97.0342C45.9443 97.0325 44.7449 97.0308 43.9054 97.028C43.4853 97.027 43.1556 97.0254 42.9303 97.0247C42.8238 97.0236 42.7403 97.023 42.6824 97.023ZM68.8832 120.868H46.9951C45.5328 120.868 44.2431 119.66 44.12 118.175L42.4984 96.9486C42.4977 96.9436 42.4973 96.9374 42.4973 96.9313L42.5866 96.9279L42.5954 96.8431C42.8823 96.8632 72.9956 96.8632 73.2824 96.8431L73.2886 96.9279L73.3808 96.9313C73.3808 96.9374 73.3805 96.9436 73.3798 96.9486L71.7582 118.174C71.6349 119.66 70.3454 120.868 68.8832 120.868Z" fill="#222222"/>
<path d="M73.1158 102.504H42.7624C42.2961 102.504 41.9182 102.125 41.9182 101.66C41.9182 101.193 42.2961 100.815 42.7624 100.815H73.1158C73.5823 100.815 73.9601 101.193 73.9601 101.66C73.9601 102.125 73.5823 102.504 73.1158 102.504Z" fill="white"/>
<path d="M42.7622 100.904C42.3456 100.904 42.0069 101.243 42.0069 101.659C42.0069 102.075 42.3456 102.415 42.7622 102.415H73.1156C73.532 102.415 73.871 102.075 73.871 101.659C73.871 101.243 73.532 100.904 73.1156 100.904H42.7622ZM73.1156 102.593H42.7622C42.2474 102.593 41.8291 102.174 41.8291 101.659C41.8291 101.145 42.2474 100.726 42.7622 100.726H73.1156C73.6301 100.726 74.0488 101.145 74.0488 101.659C74.0488 102.174 73.6301 102.593 73.1156 102.593Z" fill="#222222"/>
<path d="M72.7278 107.438H43.1504C42.684 107.438 42.3062 107.06 42.3062 106.594C42.3062 106.127 42.684 105.75 43.1504 105.75H72.7278C73.1937 105.75 73.5716 106.127 73.5716 106.594C73.5716 107.06 73.1937 107.438 72.7278 107.438Z" fill="white"/>
<path d="M43.1504 105.839C42.7342 105.839 42.3955 106.177 42.3955 106.594C42.3955 107.01 42.7342 107.348 43.1504 107.348H72.7278C73.1441 107.348 73.4831 107.01 73.4831 106.594C73.4831 106.177 73.1441 105.839 72.7278 105.839H43.1504ZM72.7278 107.527H43.1504C42.636 107.527 42.2173 107.108 42.2173 106.594C42.2173 106.08 42.636 105.661 43.1504 105.661H72.7278C73.2422 105.661 73.6609 106.08 73.6609 106.594C73.6609 107.108 73.2422 107.527 72.7278 107.527Z" fill="#222222"/>
<path d="M72.1241 112.373H43.7541C43.288 112.373 42.9099 111.995 42.9099 111.528C42.9099 111.063 43.288 110.685 43.7541 110.685H72.1241C72.5901 110.685 72.9679 111.063 72.9679 111.528C72.9679 111.995 72.5901 112.373 72.1241 112.373Z" fill="white"/>
<path d="M43.7542 110.774C43.3379 110.774 42.9992 111.112 42.9992 111.528C42.9992 111.945 43.3379 112.284 43.7542 112.284H72.1242C72.5404 112.284 72.8791 111.945 72.8791 111.528C72.8791 111.112 72.5404 110.774 72.1242 110.774H43.7542ZM72.1242 112.461H43.7542C43.2398 112.461 42.821 112.043 42.821 111.528C42.821 111.014 43.2398 110.595 43.7542 110.595H72.1242C72.6386 110.595 73.0569 111.014 73.0569 111.528C73.0569 112.043 72.6386 112.461 72.1242 112.461Z" fill="#222222"/>
<path d="M71.864 117.308H44.0136C43.5475 117.308 43.1697 116.929 43.1697 116.463C43.1697 115.997 43.5475 115.619 44.0136 115.619H71.864C72.3305 115.619 72.7082 115.997 72.7082 116.463C72.7082 116.929 72.3305 117.308 71.864 117.308Z" fill="white"/>
<path d="M44.0137 115.708C43.5973 115.708 43.2587 116.047 43.2587 116.463C43.2587 116.879 43.5973 117.218 44.0137 117.218H71.864C72.2807 117.218 72.6193 116.879 72.6193 116.463C72.6193 116.047 72.2807 115.708 71.864 115.708H44.0137ZM71.864 117.396H44.0137C43.4992 117.396 43.0806 116.978 43.0806 116.463C43.0806 115.949 43.4992 115.53 44.0137 115.53H71.864C72.3788 115.53 72.7972 115.949 72.7972 116.463C72.7972 116.978 72.3788 117.396 71.864 117.396Z" fill="#222222"/>
<path d="M65.226 96.9497L65.0557 96.9128L73.2761 58.8934H69.5214L68.1716 62.3202L67.1263 57.4737L64.6772 69.2298L62.1289 52.6646L57.931 66.0385L56.4845 60.4224L53.8479 65.891L51.1824 53.4196L49.8248 66.3183L47.9685 58.8934H42.6023L50.8227 96.9128L50.6524 96.9497L42.386 58.7189H48.105L48.1215 58.7851L49.7546 65.3187L51.1238 52.3107L53.9119 65.3565L56.5346 59.9172L57.9473 65.4034L62.1871 51.8968L64.7031 68.2507L67.1232 56.6324L68.2206 61.7198L69.4028 58.7189H73.4923L65.226 96.9497Z" fill="white"/>
<path d="M92.8726 70.5668L101.976 101.216L101.412 123.487H107.015L109.151 99.6463L103.058 69.7831L92.8726 70.5668Z" fill="#222222"/>
<path d="M113.645 128.096H99.9917L101.412 123.487H107.015L113.645 128.096Z" fill="white"/>
<mask id="mask1_86_51" style="mask-type:luminance" maskUnits="userSpaceOnUse" x="99" y="123" width="15" height="6">
<path d="M99.8389 123.387H113.954V128.187H99.8389V123.387Z" fill="white"/>
</mask>
<g mask="url(#mask1_86_51)">
<path d="M100.113 128.007H113.361L106.988 123.576H101.479L100.113 128.007ZM113.929 128.185H99.8718L101.347 123.398H107.043L113.929 128.185Z" fill="#222222"/>
</g>
<path d="M105.337 125.301L105.211 125.175L106.953 123.424L107.079 123.55L105.337 125.301Z" fill="#222222"/>
<path d="M110.845 127.243H100.282V127.065H110.845V127.243Z" fill="#222222"/>
<path d="M98.2303 70.5668L93.1596 101.126L90.1285 123.487H84.5256L85.9844 99.5564L88.0443 69.7831L98.2303 70.5668Z" fill="#222222"/>
<path d="M77.8962 128.096H91.5493L90.1283 123.487H84.5255L77.8962 128.096Z" fill="white"/>
<mask id="mask2_86_51" style="mask-type:luminance" maskUnits="userSpaceOnUse" x="77" y="123" width="15" height="6">
<path d="M77.5771 123.387H91.6918V128.187H77.5771V123.387Z" fill="white"/>
</mask>
<g mask="url(#mask2_86_51)">
<path d="M78.1802 128.007H91.4293L90.0628 123.576H84.5536L78.1802 128.007ZM91.6701 128.184H77.6125L84.4982 123.398H90.1943L91.6701 128.184Z" fill="#222222"/>
</g>
<path d="M86.2042 125.301L84.4626 123.55L84.589 123.424L86.3303 125.175L86.2042 125.301Z" fill="#222222"/>
<path d="M91.2591 127.243H80.6963V127.065H91.2591V127.243Z" fill="#222222"/>
<path d="M89.5322 52.771C88.7308 55.9961 88.2794 59.2978 88.1865 62.6193L88.0583 67.1863L87.9602 71.265C87.9602 71.265 95.6522 74.2777 103.484 71.1137C103.253 66.1381 103.05 63.1307 102.908 61.3777C102.781 59.8272 102.701 59.2579 102.689 59.1772L102.039 52.3087C101.471 52.1437 100.882 52.0456 100.282 52.0191L96.8906 51.8685L93.4602 51.9956L89.5322 52.771Z" fill="white"/>
<path d="M88.0287 71.2189C88.3319 71.3314 90.174 71.9869 92.7976 72.3095C95.4269 72.6332 99.3986 72.6795 103.414 71.069C103.178 65.9759 102.972 62.9913 102.841 61.3832C102.711 59.8064 102.631 59.246 102.622 59.1871L101.976 52.3608C101.425 52.204 100.854 52.1118 100.279 52.0865L96.8871 51.9359L93.468 52.0626L89.5873 52.8289C88.7949 56.0304 88.3463 59.325 88.2536 62.6213L88.1255 67.1884L88.0287 71.2189ZM95.7255 72.6244C94.6298 72.6244 93.633 72.5483 92.7765 72.4428C89.8997 72.0881 87.9552 71.3355 87.9358 71.3276L87.8921 71.3106L87.9909 67.1851L88.1191 62.6176C88.2124 59.2971 88.6658 55.9791 89.4671 52.755L89.4773 52.7134L93.4578 51.9285L96.8878 51.8013L100.285 51.9519C100.886 51.9782 101.482 52.0766 102.057 52.2439L102.101 52.2569L102.105 52.3022L102.756 59.1708C102.764 59.2266 102.846 59.7911 102.975 61.372C103.106 62.9866 103.313 65.9865 103.551 71.1106L103.554 71.1583L103.509 71.1763C100.758 72.2874 98.0271 72.6244 95.7255 72.6244Z" fill="#222222"/>
<path d="M97.5728 52.2636C97.4007 54.2487 94.9921 55.7923 92.8413 55.7246L92.9075 52.4913L92.9565 50.1108L96.4737 49.7479L97.0355 51.0354L97.5728 52.2636Z" fill="white"/>
<path d="M92.9102 55.6587C92.933 55.6591 92.9564 55.6594 92.98 55.6594C93.982 55.6594 95.0425 55.3167 95.9102 54.7088C96.8539 54.0472 97.4191 53.1836 97.5039 52.2749L96.4318 49.8198L93.0226 50.1718L92.9102 55.6587ZM92.9765 55.794C92.9303 55.794 92.885 55.7934 92.8396 55.792L92.7725 55.7896L92.8901 50.0498L96.5157 49.676L97.6406 52.2525L97.6399 52.2695C97.4627 54.3212 95.0626 55.794 92.9765 55.794Z" fill="#222222"/>
<path d="M94.6577 55.4264L96.1458 56.9306L98.0983 54.0687C98.5303 53.4357 98.2766 52.5658 97.5726 52.264C97.5055 53.5944 96.2487 54.3137 94.6577 55.4264Z" fill="#222222"/>
<path d="M94.6578 55.4305L93.26 57.0181L92.0687 54.557C91.683 53.7597 92.0452 52.8017 92.8621 52.4594C93.0063 53.7833 93.0051 54.4121 94.6578 55.4305Z" fill="#222222"/>
<path d="M102.787 60.9298L102.622 59.1796L102.755 59.1595V59.1659L102.921 60.9171L102.787 60.9298Z" fill="#222222"/>
<path d="M95.0373 55.81L97.0023 68.4433L95.2108 70.9824L93.5144 68.7065L94.2609 55.8809L94.6577 55.4305L95.0373 55.81Z" fill="#4BBBFA"/>
<path d="M86.3812 78.1355C86.3812 78.1355 87.7852 77.883 88.457 78.406C89.1285 78.9289 89.898 80.705 88.5693 79.8788C87.2411 79.0526 88.35 82.3963 87.2765 85.4554C86.203 88.5145 85.9059 85.4435 85.7823 84.0636C85.5789 81.7919 85.0396 80.3633 85.0396 80.3633L86.3812 78.1355Z" fill="white"/>
<path d="M85.1227 80.3711C85.2055 80.6049 85.673 81.9939 85.8575 84.0568C85.9147 84.6964 86.0892 86.6425 86.4697 86.6902C86.5581 86.7014 86.7955 86.5982 87.2053 85.4306C87.7007 84.0184 87.7279 82.5323 87.7473 81.4472C87.7646 80.5002 87.7759 79.8745 88.0713 79.714C88.2063 79.6404 88.3823 79.6735 88.6092 79.8149C88.9162 80.0056 89.1352 80.0677 89.1955 79.9814C89.3362 79.7794 88.8906 78.8393 88.4106 78.4657C87.8291 78.0132 86.6418 78.1713 86.4278 78.2044L85.1227 80.3711ZM86.4813 86.8418C86.4711 86.8418 86.4612 86.8411 86.451 86.8397C86.035 86.7879 85.8527 85.695 85.7073 84.0705C85.5073 81.8365 84.9745 80.4039 84.969 80.39L84.9561 80.3555L86.3342 78.067L86.3679 78.0613C86.4268 78.0503 87.8128 77.8091 88.5033 78.3468C88.9574 78.7 89.5502 79.7369 89.3196 80.068C89.2011 80.2373 88.9356 80.1954 88.5295 79.9429C88.355 79.8346 88.2252 79.8019 88.1436 79.8466C87.9251 79.9651 87.9133 80.6206 87.8982 81.4498C87.8785 82.5451 87.8512 84.0452 87.3477 85.4807C87.0227 86.407 86.7464 86.8418 86.4813 86.8418Z" fill="#222222"/>
<path d="M89.633 52.724L88.21 61.9542L81.8958 66.8818L87.8063 77.6835L84.6387 81.04L76.5989 69.8463C74.998 67.6174 75.3337 64.5406 77.3777 62.7099C81.6304 58.9008 88.3184 53.0503 89.633 52.724Z" fill="white"/>
<path d="M89.5229 52.8545C88.333 53.3369 84.0686 56.8365 77.4368 62.7761C75.4225 64.5803 75.0934 67.5976 76.6711 69.7945L84.6481 80.9005L87.6969 77.6695L81.7812 66.8583L88.1275 61.9059L89.5229 52.8545ZM84.6294 81.1793L84.5663 81.0918L76.5266 69.898C74.8954 67.6273 75.2357 64.5084 77.3183 62.6435C82.2184 58.255 88.3288 52.9564 89.6116 52.6374L89.7412 52.6055L88.2924 62.0029L88.2647 62.0244L82.0099 66.9056L87.9152 77.6974L84.6294 81.1793Z" fill="#222222"/>
<path d="M97.0355 51.0354C96.5881 51.4712 95.0653 52.7571 92.9075 52.4913L92.9565 50.1108L96.4737 49.7479L97.0355 51.0354Z" fill="#222222"/>
<path d="M100.007 43.5513C100.007 43.5513 100.58 43.8457 100.04 45.6364C99.4998 47.4271 98.3425 48.9593 98.3425 48.9593L91.6218 47.838L91.6235 43.397L100.007 43.5513Z" fill="#222222"/>
<path d="M92.2821 45.4323C92.2821 45.4323 91.4883 44.3431 91.1484 45.1407C90.808 45.9376 90.9262 48.0887 92.3084 47.6926C92.5281 46.1201 92.2821 45.4323 92.2821 45.4323Z" fill="white"/>
<path d="M91.4956 44.9161C91.486 44.9161 91.4762 44.9165 91.4666 44.9175C91.3621 44.9293 91.2758 45.0135 91.2105 45.1669C90.9785 45.7103 90.9693 46.8952 91.4309 47.419C91.6359 47.6502 91.9105 47.7245 92.2472 47.6389C92.4383 46.2291 92.2472 45.5467 92.2219 45.4637C92.0999 45.2994 91.7579 44.9161 91.4956 44.9161ZM91.9916 47.8077C91.731 47.8077 91.5058 47.7065 91.3304 47.5079C90.8177 46.9269 90.8439 45.6824 91.0864 45.114C91.1722 44.9127 91.2953 44.8016 91.452 44.7839C91.8547 44.7373 92.317 45.3658 92.3371 45.3925L92.346 45.4098C92.3562 45.4384 92.5943 46.1314 92.3746 47.7018L92.3685 47.745L92.3266 47.7572C92.2096 47.7909 92.0972 47.8077 91.9916 47.8077Z" fill="#2A32B4"/>
<path d="M98.6713 46.2913C98.6713 46.2913 99.6982 45.4183 99.8419 46.2732C99.9857 47.128 99.3674 49.1916 98.1167 48.4826C98.2709 46.9028 98.6713 46.2913 98.6713 46.2913Z" fill="white"/>
<path d="M98.1882 48.4447C98.4963 48.6065 98.7804 48.5987 99.0336 48.422C99.6056 48.0212 99.8743 46.867 99.7756 46.2844C99.7477 46.1198 99.6843 46.0179 99.5848 45.9818C99.3344 45.8902 98.8853 46.1998 98.7228 46.3358C98.6786 46.4105 98.3324 47.0291 98.1882 48.4447ZM98.6131 48.6949C98.4421 48.6949 98.2643 48.6434 98.0837 48.5412L98.0452 48.5194L98.0496 48.4762C98.204 46.8976 98.5982 46.2797 98.6148 46.254L98.6278 46.2397C98.6533 46.2183 99.2499 45.7158 99.6307 45.8551C99.7782 45.9092 99.8726 46.0463 99.908 46.2619C100.011 46.8714 99.7452 48.0877 99.1102 48.532C98.9558 48.6407 98.7882 48.6949 98.6131 48.6949Z" fill="#222222"/>
<path d="M99.2846 44.0873L98.3426 48.9593C98.1151 50.1378 97.2612 51.0964 96.1169 51.4582L95.8474 51.5435C94.9327 51.8327 93.9376 51.706 93.1247 51.1967C92.0999 50.5551 91.5129 49.4012 91.5968 48.1953L91.9674 42.8839C91.9674 42.8839 95.9295 40.6496 99.2846 44.0873Z" fill="white"/>
<path d="M92.0318 42.9254L91.6639 48.2002C91.5811 49.3835 92.1548 50.5098 93.1605 51.1397C93.9578 51.6391 94.93 51.7632 95.8274 51.4794L96.0969 51.3942C97.2185 51.0396 98.0542 50.1016 98.2772 48.9466L99.2124 44.109C97.5056 42.3769 95.6434 42.1486 94.3799 42.263C93.1361 42.3755 92.2115 42.8317 92.0318 42.9254ZM94.8602 51.7635C94.2402 51.7635 93.6263 51.5904 93.089 51.2539C92.0408 50.5973 91.4432 49.4239 91.5298 48.1906L91.9027 42.8426L91.9341 42.8249C91.9447 42.8194 92.9538 42.258 94.3622 42.1292C95.6625 42.0102 97.5813 42.2454 99.3334 44.0402L99.3579 44.0655L99.3512 44.0998L98.4091 48.9722C98.1771 50.1756 97.3057 51.153 96.1371 51.5227L95.8676 51.6074C95.5379 51.7121 95.1979 51.7635 94.8602 51.7635Z" fill="#222222"/>
<path d="M100.007 43.5633C99.3789 44.7782 94.0684 44.7243 92.0648 44.2971C89.496 43.7489 90.8203 39.5218 90.8203 39.5218C92.2358 41.2475 95.7279 40.0537 98.797 41.6033C99.5305 41.9736 99.9979 42.7293 100.007 43.5513V43.5633Z" fill="#222222"/>
<path d="M95.9357 55.425C95.9357 55.425 95.7122 54.1586 96.1501 53.0735C96.5872 51.9884 96.1501 49.9909 95.3767 51.4283C94.6041 52.8654 92.596 50.8835 90.1741 48.3327C88.8861 46.9763 88.4429 50.8055 90.9713 53.1454C93.4998 55.4851 92.0152 54.4461 92.6485 56.2543C93.5738 56.1937 95.9357 55.425 95.9357 55.425Z" fill="white"/>
<path d="M89.6763 48.1454C89.655 48.1454 89.6345 48.1477 89.6144 48.1532C89.476 48.1896 89.3633 48.3561 89.2965 48.6226C89.0641 49.5538 89.4564 51.6133 91.0364 53.0749C92.6267 54.5471 92.6703 54.7038 92.597 55.1311C92.5647 55.3181 92.5211 55.5716 92.7156 56.1528C93.5632 56.0706 95.4265 55.487 95.8285 55.359C95.7865 55.0554 95.6782 53.9883 96.0612 53.0378C96.3708 52.2688 96.2052 51.1619 95.9314 51.0331C95.8134 50.9789 95.6391 51.1432 95.4612 51.4733C95.2946 51.7836 95.0626 51.9605 94.7723 51.9993C93.7476 52.1363 92.1218 50.523 90.1046 48.3989C89.9462 48.2315 89.7993 48.1454 89.6763 48.1454ZM92.5821 56.3545L92.5586 56.286C92.3215 55.6081 92.3723 55.3137 92.4087 55.0987C92.4629 54.7805 92.4813 54.6731 90.9062 53.2156C89.2516 51.6842 88.8601 49.5807 89.1109 48.576C89.1963 48.2343 89.3538 48.0237 89.5657 47.9681C89.7094 47.9303 89.9438 47.9511 90.2436 48.2669C92.1542 50.2795 93.8136 51.9346 94.7467 51.8099C94.9763 51.7793 95.1542 51.6396 95.2929 51.3826C95.5982 50.815 95.8526 50.785 96.0125 50.86C96.4311 51.0562 96.5575 52.3175 96.2383 53.1094C95.8172 54.1553 96.0271 55.3962 96.0298 55.4083L96.0437 55.4905L95.9654 55.5161C95.8687 55.5478 93.5809 56.2891 92.6556 56.3497L92.5821 56.3545Z" fill="#222222"/>
<path d="M99.5602 53.5764C98.6734 55.1351 98.6652 56.9963 99.6441 61.0705L96.1755 53.4248L91.9714 55.3307L98.0837 68.2215C99.1094 70.3849 101.799 71.2274 103.829 69.959C104.751 69.3835 105.402 68.4613 105.392 67.2913C105.349 62.0537 105.001 56.2543 103.817 53.4671C103.168 51.9401 100.381 52.1318 99.5602 53.5764Z" fill="white"/>
<path d="M92.0912 55.3742L98.1639 68.1833C98.6517 69.2118 99.5576 69.9855 100.652 70.3055C101.729 70.6214 102.841 70.4714 103.782 69.8834C104.771 69.2653 105.312 68.3452 105.304 67.292C105.247 60.5529 104.705 55.7845 103.735 53.5017C103.484 52.9114 102.872 52.5454 102.055 52.4984C101.04 52.4378 100.046 52.9011 99.6369 53.62C98.7484 55.1834 98.7719 57.0583 99.7303 61.0497L99.5631 61.1072L96.131 53.5426L92.0912 55.3742ZM101.749 70.6415C101.365 70.6415 100.979 70.5869 100.601 70.4766C99.4591 70.142 98.5127 69.3341 98.0026 68.2596L91.853 55.2867L96.2199 53.3073L99.3552 60.2195C98.5886 56.7651 98.6357 55.021 99.4827 53.5324C99.9242 52.7566 100.985 52.2589 102.066 52.3206C102.952 52.3721 103.62 52.7772 103.899 53.4324C104.892 55.7691 105.424 60.4316 105.48 67.2906C105.49 68.4078 104.921 69.3823 103.876 70.0343C103.235 70.435 102.497 70.6415 101.749 70.6415Z" fill="#222222"/>
<path d="M96.0482 53.3669L92.1995 54.3508C92.4366 54.5641 92.597 54.7934 92.5613 55.0635L96.0482 53.3669Z" fill="#222222"/>
<path d="M87.428 78.0844L85.3143 81.2808L85.1035 80.5477L87.428 78.0844Z" fill="#222222"/>
<path d="M89.1819 55.6506L87.2036 62.7395L88.2099 61.9542L89.1819 55.6506Z" fill="#222222"/>
<path d="M5.73779 25.4969V32.5958C5.73779 34.3442 7.1554 35.7615 8.9041 35.7615H26.6525L30.673 39.7825V25.4969C30.673 23.748 29.2558 22.3307 27.5071 22.3307H8.9041C7.1554 22.3307 5.73779 23.748 5.73779 25.4969Z" fill="white"/>
<path d="M8.9039 22.4198C7.20699 22.4198 5.82651 23.7996 5.82651 25.4969V32.5958C5.82651 34.2927 7.20699 35.6727 8.9039 35.6727H26.6895L30.5838 39.5679V25.4969C30.5838 23.7996 29.2038 22.4198 27.5069 22.4198H8.9039ZM30.7621 39.9971L26.6156 35.8505H8.9039C7.10886 35.8505 5.64868 34.3906 5.64868 32.5958V25.4969C5.64868 23.7017 7.10886 22.2418 8.9039 22.2418H27.5069C29.3019 22.2418 30.7621 23.7017 30.7621 25.4969V39.9971Z" fill="#222222"/>
<path d="M20.3118 25.9549H9.2832V24.6936H20.3118V25.9549Z" fill="#4BBBFA"/>
<path d="M27.2794 28.0723H9.2832V26.8113H27.2794V28.0723Z" fill="white"/>
<path d="M9.37192 27.9833H27.1903V26.9002H9.37192V27.9833ZM27.3681 28.1615H9.19409V26.7224H27.3681V28.1615Z" fill="#222222"/>
<path d="M20.3118 31.1348H9.2832V29.8726H20.3118V31.1348Z" fill="#4BBBFA"/>
<path d="M27.2794 33.2522H9.2832V31.9902H27.2794V33.2522Z" fill="white"/>
<path d="M9.37192 33.1633H27.1903V32.0792H9.37192V33.1633ZM27.3681 33.3412H9.19409V31.9014H27.3681V33.3412Z" fill="#222222"/>
<path d="M32.6635 23.8142C32.6635 26.0192 30.8755 27.8073 28.67 27.8073C26.4644 27.8073 24.6765 26.0192 24.6765 23.8142C24.6765 21.6085 26.4644 19.8204 28.67 19.8204C30.8755 19.8204 32.6635 21.6085 32.6635 23.8142Z" fill="#4BBBFA"/>
<path d="M27.9749 25.9633L25.8159 23.8047L26.5655 23.0554L27.9749 24.4649L30.7746 21.6643L31.524 22.4136L27.9749 25.9633Z" fill="white"/>
<path d="M46.2009 52.414C46.2009 52.414 46.7509 51.3887 46.6817 50.3322C46.6128 49.2764 47.5528 47.6833 47.811 49.1371C48.0693 50.5906 50.8877 49.4499 53.9375 48.5412C55.5592 48.0581 54.1808 51.261 51.1429 51.9564C48.105 52.6514 49.8463 52.6811 48.7909 54.0557C48.0134 53.7424 46.2009 52.414 46.2009 52.414Z" fill="white"/>
<path d="M46.3232 52.3844C46.6438 52.6163 48.0569 53.6268 48.7592 53.9382C49.0838 53.4932 49.0936 53.2122 49.1014 52.9843C49.1192 52.4797 49.2156 52.2991 51.1213 51.863C53.0159 51.4293 54.2493 49.9946 54.4863 49.1612C54.5531 48.9259 54.5409 48.7477 54.4508 48.659C54.364 48.5729 54.1961 48.564 53.9648 48.6328C53.5229 48.7647 53.0844 48.9016 52.6607 49.0338C50.6285 49.6689 48.8732 50.2175 48.1073 49.7514C47.8958 49.623 47.7644 49.4218 47.7166 49.1537C47.6584 48.825 47.5592 48.6353 47.4475 48.6498C47.1784 48.6826 46.7287 49.5821 46.7774 50.3261C46.8372 51.2454 46.4493 52.1257 46.3232 52.3844ZM48.8224 54.1716L48.755 54.1444C47.9756 53.8302 46.219 52.5454 46.1448 52.491L46.0776 52.4419L46.1167 52.3686C46.1222 52.3587 46.6527 51.354 46.5863 50.3388C46.5385 49.6103 46.964 48.5157 47.4243 48.4601C47.5871 48.4403 47.8022 48.5391 47.9051 49.1203C47.9432 49.3347 48.042 49.4876 48.2066 49.5878C48.8992 50.0087 50.6158 49.4724 52.6033 48.8512C53.0282 48.7188 53.467 48.5814 53.9099 48.4495C54.2918 48.336 54.488 48.4268 54.5855 48.5228C54.7292 48.6649 54.7585 48.9037 54.6702 49.2137C54.4134 50.117 53.1559 51.5939 51.1639 52.0498C49.3109 52.4736 49.3055 52.6251 49.2929 52.9911C49.2841 53.2422 49.2721 53.5859 48.8668 54.1141L48.8224 54.1716Z" fill="#222222"/>
<path d="M31.402 55.0635L35.041 54.3865C39.2528 57.9906 42.8878 60.6283 42.8878 60.6283L46.2691 52.2576L50.0163 52.2047L45.7043 64.8874C45.1837 66.4185 43.3229 66.998 42.0252 66.0331C37.3269 62.5396 30.3712 57.5697 31.402 55.0635Z" fill="white"/>
<path d="M31.4668 55.142C30.615 57.4635 36.7861 62.0381 41.2999 65.384C41.5649 65.5807 41.8248 65.7732 42.0783 65.9615C42.6735 66.4045 43.4214 66.5318 44.1296 66.3114C44.8379 66.0908 45.3813 65.5612 45.6201 64.8587L49.8915 52.2957L46.3293 52.3458L42.9277 60.7672L42.8357 60.7002C42.7993 60.6739 39.1686 58.0327 35.0153 54.4816L31.4668 55.142ZM43.4397 66.5952C42.9178 66.5952 42.4072 66.428 41.9721 66.1043C41.7189 65.9159 41.459 65.7234 41.1939 65.5271C36.3487 61.9352 30.318 57.4648 31.3196 55.0299L31.3379 54.9848L35.0665 54.2912L35.0987 54.3189C38.8919 57.5647 42.2561 60.0545 42.8483 60.4889L46.2087 52.1697L50.1409 52.1141L45.7887 64.916C45.5312 65.673 44.9459 66.2437 44.1827 66.4812C43.9371 66.5578 43.687 66.5952 43.4397 66.5952Z" fill="#222222"/>
<path d="M36.4617 56.5433C36.4617 56.5433 37.5015 58.5759 36.9072 62.1563C36.4052 61.7513 35.6958 61.1744 35.6958 61.1744L36.4617 56.5433Z" fill="#222222"/>
<path d="M12.7022 52.414C12.7022 52.414 12.1527 51.3887 12.2215 50.3322C12.2907 49.2764 11.3505 47.6833 11.0922 49.1371C10.8343 50.5906 8.01554 49.4499 4.96607 48.5412C3.34411 48.0581 4.72277 51.261 7.76067 51.9564C10.7986 52.6514 9.05698 52.6811 10.1124 54.0557C10.8898 53.7424 12.7022 52.414 12.7022 52.414Z" fill="white"/>
<path d="M4.67011 48.5871C4.57435 48.5871 4.50079 48.611 4.45236 48.659C4.36246 48.7477 4.35018 48.9259 4.4169 49.1612C4.65405 49.9946 5.88727 51.4293 7.78226 51.863C9.68771 52.2991 9.78402 52.4797 9.80175 52.9843C9.80956 53.2122 9.81947 53.4932 10.1441 53.9382C10.8467 53.6268 12.2594 52.6163 12.58 52.3844C12.4542 52.1257 12.0663 51.2454 12.1262 50.3261C12.1749 49.5821 11.7249 48.6826 11.4561 48.6498C11.343 48.6356 11.2449 48.825 11.1867 49.1537C11.139 49.4218 11.0075 49.623 10.7963 49.7514C10.03 50.2171 8.27485 49.6689 6.24307 49.0338C5.81888 48.9016 5.38044 48.7647 4.93852 48.6328C4.83635 48.6022 4.74604 48.5871 4.67011 48.5871ZM10.0808 54.1716L10.0365 54.1141C9.63146 53.5859 9.61945 53.2422 9.61066 52.9911C9.59768 52.6251 9.59265 52.4736 7.73926 52.0498C5.74727 51.5939 4.4899 50.117 4.23293 49.2137C4.14471 48.9037 4.17403 48.6649 4.3178 48.5228C4.41523 48.4268 4.61148 48.336 4.99338 48.4495C5.43628 48.5814 5.87541 48.7188 6.29988 48.8512C8.28783 49.4724 10.0044 50.0089 10.6968 49.5878C10.8616 49.4876 10.9601 49.3347 10.9983 49.1203C11.1014 48.5391 11.3161 48.44 11.479 48.4601C11.9392 48.5157 12.3648 49.6103 12.317 50.3388C12.2509 51.354 12.7814 52.3587 12.7865 52.3686L12.8257 52.4419L12.7588 52.491C12.6843 52.5454 10.928 53.8302 10.1482 54.1444L10.0808 54.1716Z" fill="#222222"/>
<path d="M27.5015 55.0635L23.8623 54.3865C19.6505 57.9906 16.0153 60.6283 16.0153 60.6283L12.6341 52.2576L8.88696 52.2047L13.199 64.8874C13.7195 66.4185 15.5807 66.998 16.8784 66.0331C21.5763 62.5396 28.5321 57.5697 27.5015 55.0635Z" fill="white"/>
<path d="M9.01217 52.2957L13.2833 64.8587C13.5221 65.5612 14.0655 66.0908 14.7737 66.3114C15.4824 66.5323 16.2297 66.4045 16.8253 65.9615C17.0788 65.7732 17.3387 65.5803 17.6038 65.384C22.1175 62.0381 28.2882 57.4635 27.4365 55.142L23.888 54.4816C19.7347 58.0327 16.1041 60.6739 16.0677 60.7002L15.9757 60.7672L12.5739 52.3458L9.01217 52.2957ZM15.464 66.5952C15.2162 66.5952 14.9665 66.5578 14.721 66.4812C13.9575 66.2437 13.3722 65.673 13.1147 64.916L8.76245 52.1141L12.6945 52.1697L12.7167 52.2245L16.055 60.4889C16.6471 60.0545 20.0113 57.5647 23.8045 54.3189L23.8369 54.2912L27.5653 54.9848L27.5837 55.0299C28.5854 57.4648 22.555 61.9352 17.7097 65.5268C17.4447 65.7234 17.1848 65.9159 16.9316 66.1043C16.4962 66.428 15.9855 66.5952 15.464 66.5952Z" fill="#222222"/>
<path d="M32.3351 43.2341C32.3351 43.2341 29.0346 41.4638 26.8662 42.8665C24.6978 44.2689 25.2588 47.2121 24.5857 48.349C23.9125 49.4857 25.5955 50.8692 24.249 52.7299C22.9028 54.5904 25.3947 57.8696 30.2069 57.8008C35.019 57.732 37.137 56.9105 35.3557 52.4589C34.0662 49.2369 36.735 43.765 32.3351 43.2341Z" fill="#222222"/>
<path d="M32.6634 72.2319L26.9394 102.881L22.9374 125.152H18.52L19.7638 101.311C19.5782 89.225 19.5732 77.26 22.4321 72.0401L32.6634 72.2319Z" fill="#222222"/>
<path d="M25.9526 72.2318C27.4601 83.9505 28.6434 93.7573 33.6742 102.329L39.3176 125.152H43.5735L40.5216 101.311L36.1387 71.4485L25.9526 72.2318Z" fill="#222222"/>
<path d="M48.6006 128.096H38.2415L39.3197 124.599H43.5705L48.6006 128.096Z" fill="white"/>
<mask id="mask3_86_51" style="mask-type:luminance" maskUnits="userSpaceOnUse" x="38" y="124" width="11" height="5">
<path d="M38.0918 124.495H48.919V128.187H38.0918V124.495Z" fill="white"/>
</mask>
<g mask="url(#mask3_86_51)">
<path d="M38.3625 128.007H48.3172L43.5433 124.688H39.386L38.3625 128.007ZM48.8852 128.185H38.1213L39.2545 124.51H43.5989L48.8852 128.185Z" fill="#222222"/>
</g>
<path d="M42.3126 125.99L42.1863 125.865L43.5074 124.536L43.6339 124.662L42.3126 125.99Z" fill="#222222"/>
<path d="M46.4765 127.471H38.4617V127.293H46.4765V127.471Z" fill="#222222"/>
<path d="M13.8113 128.096H24.1703L23.0925 124.599H18.8414L13.8113 128.096Z" fill="white"/>
<mask id="mask4_86_51" style="mask-type:luminance" maskUnits="userSpaceOnUse" x="13" y="124" width="12" height="5">
<path d="M13.5071 124.495H24.2985V128.187H13.5071V124.495Z" fill="white"/>
</mask>
<g mask="url(#mask4_86_51)">
<path d="M14.0951 128.007H24.0498L23.0268 124.688H18.8694L14.0951 128.007ZM24.291 128.185H13.5276L18.8136 124.51H23.158L24.291 128.185Z" fill="#222222"/>
</g>
<path d="M20.0995 125.99L18.7783 124.662L18.9044 124.536L20.2255 125.865L20.0995 125.99Z" fill="#222222"/>
<path d="M23.9501 127.471H15.9355V127.293H23.9501V127.471Z" fill="#222222"/>
<path d="M33.2778 47.436C33.2778 47.436 34.1752 46.4309 34.4348 47.2578C34.6947 48.0851 34.3642 50.2137 33.0284 49.6826C32.9654 48.0962 33.2778 47.436 33.2778 47.436Z" fill="white"/>
<path d="M33.0942 49.6356C33.4212 49.7534 33.7016 49.707 33.9279 49.4968C34.4399 49.022 34.5475 47.8418 34.3708 47.2779C34.3207 47.1187 34.2429 47.0268 34.1401 47.0047C33.8795 46.9478 33.4775 47.3161 33.3351 47.4731C33.301 47.5535 33.0431 48.2135 33.0942 49.6356ZM33.4273 49.8332C33.2932 49.8332 33.1514 49.8039 33.0036 49.7453L32.9631 49.729L32.9613 49.6853C32.8979 48.1007 33.2036 47.4346 33.2169 47.407L33.2275 47.3911C33.2495 47.3665 33.7728 46.7877 34.1684 46.8728C34.3224 46.9062 34.4337 47.0289 34.4992 47.2377C34.6842 47.8271 34.5874 49.0686 34.0195 49.5957C33.8494 49.7534 33.6491 49.8332 33.4273 49.8332Z" fill="#2A32B4"/>
<path d="M26.8353 47.6588C26.8353 47.6588 25.8996 46.6885 25.6718 47.5249C25.4439 48.3613 25.8554 50.476 27.1701 49.8941C27.1725 48.3069 26.8353 47.6588 26.8353 47.6588Z" fill="white"/>
<path d="M26.0254 47.2523C26.0016 47.2523 25.9788 47.2551 25.9566 47.2605C25.8547 47.2868 25.7809 47.3814 25.7369 47.5426C25.5816 48.1125 25.7345 49.2877 26.2643 49.7429C26.4983 49.9446 26.7804 49.98 27.1027 49.8495C27.0993 48.4267 26.8165 47.7767 26.7793 47.6976C26.6435 47.5592 26.2841 47.2523 26.0254 47.2523ZM26.7422 50.0604C26.5341 50.0604 26.343 49.9885 26.1763 49.845C25.5891 49.3398 25.4446 48.1033 25.6071 47.5072C25.6646 47.296 25.771 47.1692 25.9235 47.13C26.3158 47.0295 26.8608 47.5878 26.8836 47.6117L26.8949 47.6275C26.9089 47.6547 27.2397 48.3085 27.2373 49.894V49.938L27.1974 49.9557C27.0394 50.0257 26.8867 50.0604 26.7422 50.0604Z" fill="#222222"/>
<path d="M35.9136 55.2468C38.7641 60.7547 32.8192 60.738 37.0443 72.4625C37.1561 72.7725 37.0906 73.1198 36.8716 73.3664C34.5798 75.9458 29.6846 75.8129 22.8235 73.2213C22.2891 73.0196 22.0772 72.3807 22.3813 71.8973C24.9242 67.8596 23.9308 59.0635 23.3939 55.5092C23.2546 54.5835 23.941 53.7287 24.8762 53.6852C24.8824 53.6848 24.8884 53.6848 24.8945 53.6845L28.2861 53.5334L31.7161 53.6609L34.5556 54.2215C35.1413 54.3372 35.6394 54.7168 35.9136 55.2468Z" fill="white"/>
<path d="M28.2837 53.601L24.8789 53.7523C24.4575 53.772 24.0609 53.972 23.7907 54.3007C23.5166 54.635 23.3962 55.0721 23.4606 55.4993C24.003 59.0909 24.9893 67.8827 22.4383 71.933C22.3037 72.1473 22.2723 72.4069 22.3524 72.6455C22.4317 72.8826 22.6123 73.0697 22.8471 73.1582C26.379 74.4924 29.368 75.1598 31.7436 75.1602C34.0194 75.1602 35.732 74.5476 36.8212 73.3217C37.0235 73.0938 37.0849 72.7732 36.9809 72.4854C34.5755 65.8099 35.4465 62.9596 36.1463 60.6698C36.6647 58.9745 37.074 57.6355 35.854 55.2775C35.5859 54.7601 35.1083 54.3993 34.5427 54.2875L31.7083 53.728L28.2837 53.601ZM31.7495 75.3016C31.6868 75.3016 31.6237 75.3012 31.56 75.3002C29.1968 75.2654 26.2495 74.5875 22.7997 73.2842C22.5268 73.1813 22.3173 72.964 22.2247 72.6883C22.1316 72.4111 22.168 72.1099 22.3245 71.8616C24.8512 67.8491 23.8675 59.0965 23.3274 55.5194C23.2572 55.0543 23.3881 54.579 23.6868 54.2153C23.9808 53.8568 24.4132 53.6391 24.8732 53.6176L24.8914 53.6169L28.283 53.4664L31.7289 53.5948L34.5686 54.1553C35.1747 54.2749 35.6867 54.6615 35.9735 55.2158C37.2188 57.6222 36.8024 58.9844 36.2754 60.709C35.5812 62.9802 34.7174 65.8066 37.1076 72.4397C37.2282 72.7743 37.1571 73.1463 36.922 73.4109C35.807 74.6658 34.0671 75.3016 31.7495 75.3016Z" fill="#222222"/>
<path d="M27.604 53.929C27.7754 55.9136 30.185 57.4576 32.335 57.3898L32.2636 53.8963L32.2203 51.7762L28.9194 51.435L28.7024 51.4133L27.604 53.929Z" fill="white"/>
<path d="M27.6726 53.9399C27.757 54.8486 28.3222 55.7126 29.2663 56.3739C30.1538 56.9961 31.2419 57.3378 32.2667 57.3241L32.1542 51.8368L28.7447 51.4852L27.6726 53.9399ZM32.2002 57.4591C30.1139 57.4591 27.7142 55.9866 27.537 53.9349L27.5356 53.9178L27.5425 53.9021L28.6605 51.3411L32.2864 51.7152L32.4039 57.455L32.3376 57.457C32.2918 57.4584 32.2462 57.4591 32.2002 57.4591Z" fill="#222222"/>
<path d="M30.5187 57.0918L30.2294 57.3837C29.6084 58.012 28.5683 57.9176 28.0702 57.1879L27.0784 55.7341C26.6464 55.1011 26.8999 54.2309 27.6041 53.929C27.6712 55.2595 28.928 55.9791 30.5187 57.0918Z" fill="#222222"/>
<path d="M30.5188 57.0954C31.1825 57.8497 32.4001 57.6839 32.8378 56.7797L33.1077 56.2223C33.4933 55.4248 33.1311 54.4667 32.3143 54.1243C32.1701 55.4485 32.171 56.0772 30.5188 57.0954Z" fill="#222222"/>
<path d="M28.4155 52.8401C28.4155 52.8401 30.15 54.4884 32.2636 53.8963L32.2203 51.7762L28.9194 51.4351C28.6193 52.0061 28.4155 52.8401 28.4155 52.8401Z" fill="#222222"/>
<path d="M26.662 47.7888L26.8974 50.3461C27.0078 51.541 27.7631 52.5799 28.8659 53.0531L29.1251 53.1645C30.0069 53.5426 31.0102 53.5151 31.8696 53.0888C32.9524 52.5516 33.6511 51.4613 33.6866 50.2532L33.7653 47.5668C33.8268 45.4776 32.0826 43.7758 29.997 43.9094C29.9639 43.9111 29.9308 43.9134 29.8979 43.9165C27.9317 44.0763 26.4807 45.8245 26.662 47.7888Z" fill="white"/>
<path d="M30.2201 43.9693C30.1471 43.9693 30.0742 43.9717 30.001 43.9765C29.9686 43.9785 29.9359 43.9809 29.9032 43.9833C28.9766 44.0589 28.1357 44.494 27.5351 45.2088C26.9287 45.9301 26.6426 46.8445 26.7291 47.7829L26.9645 50.3398C27.0725 51.5114 27.8114 52.5275 28.8924 52.9914L29.1516 53.1028C30.0166 53.4738 30.996 53.4466 31.8397 53.0286C32.9026 52.5012 33.5843 51.4372 33.619 50.2511L33.6981 47.5647C33.727 46.5829 33.3383 45.6283 32.6314 44.9454C31.983 44.3186 31.1143 43.9693 30.2201 43.9693ZM30.4155 53.4974C29.9683 53.4974 29.5206 53.4074 29.0988 53.2265L28.8392 53.1151C27.7126 52.6317 26.943 51.5731 26.8306 50.3523L26.5948 47.795C26.5049 46.8207 26.8023 45.8714 27.4319 45.1223C28.056 44.3796 28.9295 43.9277 29.8924 43.8492C29.9257 43.8466 29.9594 43.844 29.9929 43.8419C31.0009 43.7775 31.9967 44.1445 32.7251 44.8484C33.4589 45.5574 33.8627 46.5488 33.8327 47.5689L33.7537 50.2553C33.7175 51.4911 33.0069 52.5996 31.8996 53.1492C31.4322 53.3809 30.9242 53.4974 30.4155 53.4974Z" fill="#222222"/>
<path d="M30.6044 63.4959L30.433 63.4493C31.0278 61.2493 30.4368 57.1497 30.4307 57.1088L30.6068 57.0829C30.613 57.1242 31.2094 61.2599 30.6044 63.4959Z" fill="#222222"/>
<path d="M32.4863 45.4242C32.4863 45.4242 30.894 47.2369 26.6866 46.9314C25.703 45.0466 28.8015 43.1185 31.8904 43.1942C34.9794 43.2698 33.8732 46.9314 33.8732 46.9314C33.8732 46.9314 32.9763 46.9695 32.4863 45.4242Z" fill="#222222"/>
<mask id="mask5_86_51" style="mask-type:luminance" maskUnits="userSpaceOnUse" x="7" y="127" width="124" height="2">
<path d="M7.00366 127.997H130.647V128.187H7.00366V127.997Z" fill="white"/>
</mask>
<g mask="url(#mask5_86_51)">
<path d="M130.647 128.189H7.01343V128.003H130.647V128.189Z" fill="#2A32B4"/>
</g>
</svg>
