<svg width="506" height="406" viewBox="0 0 299 161" fill="none" xmlns="http://www.w3.org/2000/svg">
<path d="M8.03011 36.8833C17.7279 20.9202 33.325 13.4942 40.7104 10.3894C78.8136 -5.64158 99.6637 19.2207 157.493 10.7177C179.82 7.4333 178.207 3.50836 199.277 1.60769C224.603 -0.673439 262.365 -4.07212 284.457 19.6852C320.749 58.7151 276.718 130.145 274.546 131.702C272.286 133.318 269.791 134.488 269.791 134.488C268.634 135.036 267.405 135.519 265.975 135.983C230.196 147.619 196.265 138.577 170.082 133.095C92.6404 116.881 68.4879 151.767 33.2104 129.378C3.21067 110.334 -9.63472 65.9585 8.03011 36.8833Z" fill="#EDF6FF"/>
<path d="M234.659 121.032C248.239 127.01 271.11 104.766 268.559 93.6315C267.652 89.6634 262.307 88.5645 262.502 84.6331C262.663 81.4324 266.142 79.9128 272.893 75.0313C282.442 68.1222 288.639 63.6401 288.106 59.3746C287.534 54.8149 279.569 53.5458 279.678 48.1814C279.706 46.6554 280.331 45.5504 280.981 44.4422C287.855 32.7263 292.449 29.9775 292.458 25.2073C292.47 20.4001 288.787 15.5002 284.59 14.2278C277.923 12.2064 269.841 19.2983 266.987 25.9811C264.898 30.8752 266.504 32.33 264.278 35.7316C259.518 43.0182 249.792 38.6694 244.67 44.5507C237.758 52.481 249.449 67.2773 242.014 75.7555C238.21 80.0921 233.904 77.4981 229.605 81.6616C220.542 90.4401 222.863 115.841 234.659 121.032Z" fill="#1DA8F6"/>
<path d="M228.512 128.893C228.457 128.887 228.401 128.862 228.354 128.831C228.172 128.708 228.128 128.46 228.252 128.277C235.436 117.898 241.488 107.005 246.245 95.9053C249.26 88.8665 250.678 84.2788 251.925 80.2303C253.507 75.1073 254.869 70.6838 258.818 62.8371C260.936 58.6241 262.827 55.631 265.439 51.4923C268.077 47.3195 271.354 42.1287 276.205 33.5449C278.396 29.6695 280.563 25.7352 282.646 21.8505C282.748 21.6587 282.99 21.5876 283.185 21.6896C283.377 21.7916 283.451 22.033 283.346 22.2281C281.259 26.1128 279.089 30.0535 276.895 33.935C272.035 42.5371 268.751 47.7344 266.111 51.9133C263.508 56.0362 261.626 59.0171 259.527 63.1931C255.609 70.9809 254.253 75.3764 252.683 80.4624C251.43 84.5296 250.006 89.1388 246.976 96.2182C242.196 107.368 236.117 118.304 228.905 128.729C228.815 128.859 228.658 128.921 228.512 128.893Z" fill="white"/>
<path d="M255.692 71.1157C255.553 71.0909 255.429 70.9917 255.383 70.8463C255.315 70.639 255.429 70.4159 255.636 70.348C260.066 68.924 264.421 67.1566 268.584 65.095C272.187 63.3089 275.709 61.2721 279.059 59.0341C279.238 58.9134 279.486 58.9629 279.606 59.1454C279.73 59.3283 279.681 59.5726 279.498 59.6965C276.124 61.9499 272.568 64.0054 268.934 65.807C264.74 67.8869 260.347 69.6669 255.881 71.1031C255.819 71.1218 255.754 71.1279 255.692 71.1157Z" fill="white"/>
<path d="M258.475 64.9772C258.376 64.9617 258.286 64.9093 258.224 64.8227C256.751 62.8383 255.491 60.6934 254.476 58.4489C253.033 55.2514 252.086 51.8495 251.659 48.3395C251.634 48.1228 251.789 47.9246 252.006 47.8969C252.222 47.8721 252.42 48.0269 252.448 48.2436C252.863 51.6731 253.788 55.0007 255.2 58.1241C256.19 60.3155 257.419 62.4112 258.861 64.3521C258.991 64.5253 258.954 64.776 258.778 64.9061C258.688 64.9743 258.577 64.9959 258.475 64.9772Z" fill="white"/>
<path d="M241.057 108.375C240.894 108.347 240.76 108.22 240.733 108.05C240.695 107.833 240.841 107.629 241.057 107.595C245.892 106.787 250.371 105.029 254.367 102.367C256.791 100.754 259.007 98.8133 260.954 96.6062C261.1 96.4424 261.347 96.4266 261.515 96.5721C261.678 96.7176 261.694 96.9683 261.549 97.1325C259.558 99.3892 257.289 101.373 254.807 103.026C250.715 105.753 246.134 107.555 241.187 108.375C241.144 108.384 241.098 108.384 241.057 108.375Z" fill="white"/>
<path d="M203.188 120.925C209.296 121.658 221.766 91.1872 217.982 60.6397C215.758 42.683 202.597 23.6431 202.597 23.6431C202.597 23.6431 195.192 60.0976 195.822 77.7891C196.276 90.6183 197.324 120.222 203.188 120.925Z" fill="#1DA8F6"/>
<path d="M238.55 113.055C238.433 113.037 238.328 112.966 238.269 112.854C236.393 109.415 235.059 105.728 234.303 101.896C233.483 97.7392 233.356 93.5017 233.926 89.2919C233.957 89.075 234.155 88.9234 234.372 88.9514C234.592 88.9668 234.74 89.1835 234.712 89.4001C234.155 93.5201 234.279 97.671 235.084 101.745C235.823 105.496 237.129 109.109 238.965 112.477C239.07 112.668 238.999 112.91 238.807 113.015C238.724 113.059 238.634 113.071 238.55 113.055Z" fill="white"/>
<path d="M237.102 111.783C253.098 92.6597 257.908 51.6824 244.054 38.4711C238.984 33.6362 231.793 32.8807 226.736 35.317C212.723 42.0619 214.67 73.4959 215.348 84.4567C215.735 90.6847 217.276 115.362 225.504 118.54C229.908 120.243 234.433 114.971 237.102 111.783Z" fill="#4BBBFA"/>
<path d="M225.219 123.385C225.309 123.366 225.386 123.292 225.414 123.177C229.422 107.273 232.186 90.7066 233.626 73.9385C234.598 62.6156 234.978 51.0232 234.759 39.4834C234.755 39.2944 234.629 39.1335 234.474 39.1213C234.322 39.1058 234.201 39.2481 234.204 39.4338C234.424 50.9457 234.043 62.5103 233.074 73.8056C231.638 90.5331 228.884 107.059 224.884 122.924C224.838 123.097 224.922 123.295 225.067 123.366C225.12 123.391 225.172 123.397 225.219 123.385Z" fill="white"/>
<path d="M234.192 60.7429C234.207 60.7397 234.223 60.7336 234.238 60.7272C236.625 59.6161 239.974 57.3687 242.385 52.9703C243.215 51.4626 243.874 49.7944 244.354 48.0176C244.4 47.8441 244.32 47.6462 244.174 47.5718C244.029 47.5007 243.874 47.5779 243.828 47.7514C243.36 49.4754 242.719 51.0944 241.918 52.5554C239.609 56.7652 236.411 58.9475 234.096 60.0432C231.57 58.8143 227.091 55.9418 224.68 50.2711C224.228 49.2153 223.866 48.0949 223.603 46.9435C223.559 46.7607 223.433 46.6339 223.259 46.6741C223.111 46.7082 223.027 46.8878 223.071 47.0703C223.346 48.2712 223.724 49.4384 224.194 50.5401C226.732 56.5112 231.452 59.4828 234.04 60.721C234.09 60.7458 234.142 60.7519 234.192 60.7429Z" fill="white"/>
<path d="M232.567 79.1944C232.592 79.1883 232.617 79.179 232.638 79.1635C236.176 76.9255 239.337 74.0161 242.036 70.5183C244.205 67.7045 246.063 64.5224 247.554 61.0648C247.623 60.9039 247.567 60.6934 247.431 60.5942C247.295 60.4951 247.127 60.5447 247.059 60.7027C245.589 64.1168 243.757 67.2525 241.618 70.0258C238.993 73.4277 235.925 76.2631 232.499 78.458C229.286 75.4398 226.541 71.8367 224.34 67.7447C222.715 64.7236 221.412 61.4765 220.461 58.0868C220.412 57.9043 220.257 57.793 220.108 57.8393C219.966 57.8857 219.889 58.0714 219.941 58.251C220.904 61.7024 222.232 65.0084 223.885 68.0788C226.163 72.3105 229.007 76.0249 232.341 79.1233C232.409 79.1854 232.49 79.2102 232.567 79.1944Z" fill="white"/>
<path d="M230.629 97.024C230.645 97.0211 230.66 97.015 230.676 97.0086C234.656 95.1513 238.21 92.4337 241.234 88.9359C243.379 86.4533 245.233 83.5963 246.744 80.4481C246.818 80.2933 246.771 80.0799 246.635 79.9746C246.502 79.8661 246.335 79.9064 246.258 80.0644C244.772 83.166 242.945 85.9766 240.835 88.419C237.878 91.8392 234.415 94.4954 230.533 96.3246C228.138 95.1948 223.742 92.4801 220.464 86.7939C218.873 84.0296 217.759 80.965 217.152 77.6809C217.118 77.4952 216.97 77.3619 216.821 77.39C216.682 77.4022 216.58 77.585 216.614 77.7707C217.236 81.1507 218.384 84.3051 220.022 87.1498C223.442 93.0868 228.042 95.8759 230.481 97.0057C230.53 97.0304 230.58 97.0366 230.629 97.024Z" fill="white"/>
<path d="M73.8983 124.409C69.5308 128.814 40.3361 112.792 23.9555 86.5151C14.326 71.069 12.6638 47.9152 12.6638 47.9152C12.6638 47.9152 41.6451 71.7964 52.3674 86.0355C60.1459 96.3587 78.0926 120.181 73.8983 124.409Z" fill="#1DA8F6"/>
<path d="M86.644 124.283C92.7513 125.017 105.222 94.5456 101.437 63.9981C99.2134 46.0414 86.0522 27.0015 86.0522 27.0015C86.0522 27.0015 78.6474 63.456 79.2779 81.1475C79.7312 93.9767 80.7797 123.58 86.644 124.283Z" fill="#88C7EB"/>
<path d="M77.2629 120.119C63.721 124.994 43.0785 101.93 46.2943 91.3255C47.4396 87.5461 52.6861 86.8402 52.7605 83.0237C52.8226 79.9157 49.5537 78.2101 43.3508 73.0314C34.5726 65.7046 28.877 60.9502 29.6788 56.8579C30.5363 52.4842 38.3302 51.7909 38.5871 46.5904C38.6614 45.1107 38.129 43.9996 37.578 42.8853C31.7092 31.0857 27.447 28.1138 27.7598 23.4987C28.0724 18.8464 31.9632 14.3517 36.1109 13.4015C42.7009 11.891 50.0461 19.2983 52.3582 25.9563C54.0544 30.8349 52.4016 32.135 54.3238 35.5771C58.4435 42.9471 68.1474 39.3907 72.7129 45.4265C78.8694 53.5677 66.5596 67.1009 73.1864 75.8083C76.5757 80.2595 80.9184 78.0398 84.8003 82.3581C92.9842 91.4585 89.0284 115.888 77.2629 120.119Z" fill="#25A2E9"/>
<path d="M82.6674 128.436C82.7198 128.434 82.7726 128.415 82.8222 128.387C83.0079 128.279 83.0665 128.04 82.9583 127.858C76.7027 117.33 71.5768 106.382 67.7201 95.3187C65.2716 88.3045 64.2101 83.7667 63.2721 79.7674C62.0867 74.703 61.065 70.3322 57.7716 62.4701C56.0042 58.251 54.3762 55.2299 52.1227 51.0448C49.8538 46.8318 47.0277 41.5885 42.9081 32.9522C41.0476 29.055 39.2152 25.102 37.4603 21.2051C37.3737 21.01 37.1446 20.9264 36.9527 21.01C36.7577 21.0966 36.6711 21.3258 36.7577 21.5209C38.5158 25.421 40.3514 29.3801 42.2147 33.2835C46.3409 41.9351 49.173 47.1878 51.4448 51.4102C53.6889 55.5733 55.308 58.5822 57.0628 62.7672C60.3286 70.5675 61.3467 74.9135 62.5231 79.9405C63.464 83.9614 64.5319 88.5179 66.9927 95.5724C70.8681 106.682 76.0155 117.677 82.2959 128.251C82.3764 128.384 82.5219 128.452 82.6674 128.436Z" fill="white"/>
<path d="M60.2604 70.3973C60.3997 70.385 60.5233 70.2952 60.579 70.1591C60.6566 69.9608 60.5607 69.7381 60.3656 69.6576C56.1745 67.9829 52.0796 65.9802 48.1888 63.7052C44.821 61.7366 41.5462 59.5263 38.4569 57.1367C38.2898 57.0098 38.0484 57.0375 37.9184 57.2078C37.7883 57.3748 37.8192 57.6166 37.9866 57.7463C41.1004 60.1546 44.4032 62.3832 47.7987 64.3705C51.7236 66.6645 55.8526 68.6826 60.0779 70.3728C60.1397 70.3973 60.2015 70.4037 60.2604 70.3973Z" fill="white"/>
<path d="M104.345 122.523C125.468 109.279 142.705 71.7932 133.611 54.9472C130.283 48.7823 123.678 45.842 118.115 46.5962C102.704 48.6811 94.8423 79.1784 92.1 89.8123C90.5436 95.855 84.3844 119.8 91.2269 125.366C94.8898 128.346 100.822 124.731 104.345 122.523Z" fill="#0C9FF1"/>
<path d="M89.4593 129.885C89.5504 129.895 89.6468 129.849 89.7089 129.748C98.4355 115.861 106.184 100.959 112.734 85.4565C117.157 74.9881 121.101 64.0808 124.458 53.0377C124.513 52.857 124.442 52.6648 124.299 52.6053C124.159 52.5438 124.001 52.6418 123.946 52.8193C120.598 63.8357 116.662 74.7168 112.251 85.1598C105.716 100.625 97.9894 115.491 89.2837 129.343C89.1861 129.494 89.2044 129.708 89.3208 129.821C89.363 129.861 89.4114 129.883 89.4593 129.885Z" fill="white"/>
<path d="M117.35 73.0818C117.365 73.0835 117.382 73.0825 117.398 73.0811C120.012 72.7619 123.891 71.6594 127.544 68.2213C128.798 67.0437 129.941 65.6608 130.946 64.1193C131.044 63.9686 131.029 63.7555 130.913 63.6398C130.797 63.5272 130.626 63.5528 130.528 63.7035C129.551 65.1987 128.441 66.5405 127.227 67.6823C123.73 70.9725 120.015 72.06 117.475 72.3866C115.452 70.4374 112.08 66.3216 111.539 60.1832C111.435 59.0394 111.437 57.8619 111.543 56.6857C111.558 56.4984 111.477 56.3386 111.299 56.3233C111.147 56.3098 111.012 56.4548 110.997 56.6418C110.888 57.869 110.887 59.0957 110.994 60.289C111.562 66.7521 115.134 71.0368 117.212 73.0141C117.252 73.053 117.3 73.075 117.35 73.0818Z" fill="white"/>
<path d="M110.103 90.1282C110.128 90.1301 110.155 90.1288 110.18 90.1209C114.236 89.0856 118.141 87.2952 121.789 84.8025C124.722 82.7968 127.471 80.3444 129.959 77.517C130.073 77.385 130.085 77.1676 129.987 77.0313C129.888 76.8949 129.713 76.8903 129.6 77.0196C127.146 79.8124 124.435 82.2284 121.544 84.205C117.996 86.6293 114.202 88.3781 110.266 89.4068C108.142 85.5435 106.645 81.2684 105.816 76.6966C105.204 73.3212 104.968 69.8304 105.112 66.3129C105.121 66.124 105.008 65.9704 104.853 65.9685C104.703 65.9686 104.572 66.1213 104.567 66.3084C104.415 69.8883 104.657 73.4429 105.28 76.8737C106.139 81.6023 107.697 86.0139 109.91 89.9907C109.955 90.0709 110.024 90.1193 110.103 90.1282Z" fill="white"/>
<path d="M57.9792 64.2716C58.0751 64.2623 58.1649 64.216 58.2329 64.1384C59.793 62.3153 61.1581 60.3248 62.2878 58.2201C63.9004 55.2237 65.0457 51.995 65.6926 48.6243C65.7329 48.4167 65.5967 48.2127 65.3862 48.1724C65.1818 48.1351 64.9774 48.2712 64.9372 48.4788C64.3028 51.7723 63.1856 54.9263 61.61 57.858C60.505 59.9131 59.1708 61.8573 57.648 63.6401C57.5086 63.7978 57.5302 64.0425 57.6911 64.1818C57.7748 64.253 57.8801 64.281 57.9792 64.2716Z" fill="white"/>
<path d="M71.9235 107.44C72.0812 107.425 72.2206 107.31 72.2576 107.146C72.3072 106.942 72.1804 106.735 71.9731 106.685C67.3487 105.58 63.1328 103.577 59.4431 100.732C57.2051 99.0084 55.1902 96.9809 53.4569 94.7149C53.3269 94.5479 53.0855 94.5137 52.9152 94.6438C52.7481 94.7738 52.7172 95.0152 52.8441 95.1823C54.6208 97.504 56.6821 99.5749 58.9758 101.342C62.7491 104.255 67.0638 106.304 71.7935 107.434C71.8398 107.443 71.8833 107.446 71.9235 107.44Z" fill="white"/>
<path d="M74.0377 112.139C74.1491 112.127 74.2543 112.068 74.3226 111.963C76.3655 108.762 77.9038 105.283 78.8913 101.624C79.9654 97.6588 80.3738 93.5636 80.1076 89.4529C80.0922 89.2392 79.9094 89.0782 79.696 89.0937C79.4822 89.0908 79.3245 89.2887 79.3367 89.5025C79.6 93.5262 79.2006 97.5381 78.1484 101.426C77.1795 105.007 75.6751 108.412 73.6724 111.551C73.5578 111.727 73.6106 111.966 73.7902 112.083C73.8674 112.13 73.9511 112.148 74.0377 112.139Z" fill="white"/>
<path d="M206.519 126.559C192.977 131.434 172.335 108.37 175.551 97.7653C176.696 93.9858 181.942 93.28 182.017 89.4635C182.079 86.3555 178.81 84.6499 172.607 79.4712C163.829 72.1444 158.133 67.3899 158.935 63.2976C159.793 58.924 167.587 58.2307 167.843 53.0301C167.918 51.5505 167.385 50.4394 166.834 49.325C160.966 37.5254 156.703 34.5535 157.016 29.9385C157.329 25.2861 161.22 20.7915 165.367 19.8413C171.957 18.3307 179.302 25.738 181.614 32.396C183.311 37.2747 181.658 38.5747 183.58 42.0169C187.7 49.3868 197.404 45.8304 201.969 51.8662C208.126 60.0074 195.816 73.5407 202.443 82.248C205.832 86.6992 210.175 84.4796 214.057 88.7979C222.241 97.8982 218.285 122.328 206.519 126.559Z" fill="#25A2E9"/>
<path d="M211.924 134.876C211.976 134.873 212.029 134.855 212.079 134.827C212.264 134.719 212.323 134.48 212.215 134.297C205.959 123.77 200.833 112.821 196.976 101.759C194.528 94.7442 193.466 90.2064 192.528 86.2071C191.343 81.1427 190.321 76.772 187.028 68.9099C185.261 64.6907 183.632 61.6696 181.379 57.4846C179.11 53.2716 176.284 48.0282 172.164 39.392C170.304 35.4947 168.472 31.5418 166.717 27.6449C166.63 27.4498 166.401 27.3661 166.209 27.4498C166.014 27.5364 165.927 27.7656 166.014 27.9606C167.772 31.8608 169.608 35.8198 171.471 39.7232C175.597 48.3749 178.429 53.6276 180.701 57.8499C182.945 62.0131 184.564 65.0219 186.319 69.207C189.585 77.0073 190.603 81.3532 191.779 86.3803C192.72 90.4011 193.788 94.9576 196.249 102.012C200.124 113.122 205.272 124.117 211.552 134.691C211.633 134.824 211.778 134.892 211.924 134.876Z" fill="white"/>
<path d="M189.517 76.837C189.656 76.8248 189.78 76.735 189.835 76.5988C189.913 76.4006 189.817 76.1778 189.622 76.0974C185.431 74.4226 181.336 72.4199 177.445 70.1449C174.077 68.1763 170.803 65.966 167.713 63.5764C167.546 63.4496 167.305 63.4773 167.175 63.6475C167.045 63.8146 167.076 64.0563 167.243 64.186C170.357 66.5943 173.66 68.823 177.055 70.8102C180.98 73.1042 185.109 75.1224 189.334 76.8126C189.396 76.837 189.458 76.8435 189.517 76.837Z" fill="white"/>
<path d="M187.236 70.7114C187.331 70.7021 187.421 70.6557 187.489 70.5781C189.049 68.755 190.414 66.7646 191.544 64.6598C193.157 61.6635 194.302 58.4348 194.949 55.0641C194.989 54.8565 194.853 54.6524 194.643 54.6122C194.438 54.5748 194.234 54.711 194.194 54.9186C193.559 58.212 192.442 61.3661 190.866 64.2977C189.761 66.3529 188.427 68.297 186.904 70.0799C186.765 70.2376 186.787 70.4822 186.947 70.6216C187.031 70.6927 187.136 70.7207 187.236 70.7114Z" fill="white"/>
<path d="M201.18 113.88C201.338 113.865 201.477 113.75 201.514 113.586C201.564 113.382 201.437 113.174 201.229 113.125C196.605 112.02 192.389 110.017 188.699 107.172C186.461 105.448 184.447 103.421 182.713 101.155C182.583 100.988 182.342 100.953 182.172 101.084C182.004 101.214 181.974 101.455 182.1 101.622C183.877 103.944 185.938 106.015 188.232 107.782C192.005 110.695 196.32 112.744 201.05 113.874C201.096 113.883 201.14 113.886 201.18 113.88Z" fill="white"/>
<path d="M203.294 118.579C203.405 118.566 203.511 118.508 203.579 118.402C205.622 115.202 207.16 111.722 208.148 108.064C209.222 104.099 209.63 100.003 209.364 95.8926C209.349 95.6789 209.166 95.518 208.952 95.5334C208.739 95.5305 208.581 95.7285 208.593 95.9422C208.856 99.966 208.457 103.978 207.405 107.866C206.436 111.447 204.931 114.852 202.929 117.991C202.814 118.167 202.867 118.406 203.047 118.523C203.124 118.57 203.207 118.588 203.294 118.579Z" fill="white"/>
<path d="M20 139.146C20 127.267 80.2169 117.643 154.498 117.643C228.783 117.643 289 127.267 289 139.146C289 151.019 228.783 160.643 154.498 160.643C80.2169 160.643 20 151.019 20 139.146Z" fill="#D8EBFF"/>
<path d="M198.63 44.7612C198.71 44.7705 198.785 44.7766 198.868 44.7953C197.946 45.6927 197.64 45.8507 198.63 44.7612Z" fill="#8DC6BF"/>
<path d="M54.398 59.8159C42.8504 67.5109 41.3035 83.5521 41.0096 95.6006C40.7157 106.927 43.4769 117.744 46.0602 128.794C48.5816 139.604 58.1646 145.501 69.6039 147.908C86.6197 151.511 105.182 151.929 122.453 150.187C139.724 148.446 140.173 132.872 138.44 120.123C137.961 116.583 135.246 114.396 132.315 112.484C128.688 110.267 125.524 107.474 122.972 104.237C114.781 93.3849 114.309 80.4868 108.848 68.6789C104.533 59.3275 94.9265 52.8147 83.7811 53.1403C72.6358 53.466 62.0783 54.7048 54.398 59.8159Z" fill="white"/>
<path d="M102.839 151.561C91.6323 151.617 80.4548 150.516 69.5187 148.276C52.7272 144.736 47.2899 135.753 45.6811 128.865L45.1397 126.543C42.6724 116.066 40.3444 106.177 40.6228 95.5935C41.2648 71.1919 48.2026 63.5041 54.1736 59.5256C62.3025 54.1172 73.6953 53.0837 83.7733 52.7864C94.6479 52.482 104.656 58.6478 109.204 68.5373C111.203 73.1431 112.837 77.8747 114.092 82.6954C116.181 89.9515 118.346 97.4482 123.296 104.046C125.485 106.963 128.246 109.405 132.578 112.208C135.548 114.141 138.363 116.456 138.858 120.087C140.451 131.761 139.144 139.845 134.859 144.807C132.044 148.071 127.898 150.003 122.531 150.548C115.992 151.214 109.418 151.552 102.839 151.561ZM54.6299 60.1132C43.5387 67.4967 41.7288 82.9715 41.3962 95.6218C41.1255 106.12 43.4381 115.974 45.89 126.409L46.4391 128.731C47.986 135.42 53.2996 144.114 69.6966 147.596C85.5677 150.966 103.798 151.752 122.407 149.869C127.558 149.352 131.534 147.504 134.217 144.397C138.363 139.59 139.631 131.654 138.085 120.2C137.621 116.824 134.944 114.65 132.121 112.81C127.751 109.978 124.928 107.465 122.685 104.478C117.658 97.7809 115.485 90.2134 113.404 82.9007C112.152 78.1101 110.529 73.4071 108.547 68.8275C104.107 59.2071 94.4082 53.1757 83.8506 53.5084C73.8964 53.8057 62.6428 54.818 54.684 60.1132H54.6299Z" fill="#231F20"/>
<path d="M84.7171 119.634C82.6497 119.633 80.584 119.527 78.5296 119.316C74.5879 118.907 70.7011 118.136 66.9279 117.015C61.7922 115.493 58.3426 113.752 55.7516 111.387C51.8148 107.784 50.3375 102.892 49.7419 99.4731C48.4271 91.5163 49.7419 82.724 50.6933 78.1934C51.3143 75.0873 52.6705 72.1432 54.6667 69.5677C56.6629 66.9922 59.2507 64.8478 62.2485 63.2849C66.4097 61.0692 71.3752 59.6392 77.4158 58.9171C83.758 58.1596 88.3214 58.7826 91.7787 60.8709C97.4248 64.283 99.0336 70.8454 100.194 77.2732L102.166 88.182C102.646 90.8933 103.311 94.6027 105.639 96.3513C106.46 96.9202 107.344 97.4089 108.276 97.8096C109.908 98.5599 111.587 99.3457 112.538 101.052C113.706 103.175 114.201 106.715 113.002 109.044C111.672 111.607 108.957 113.291 107.039 114.332C100.254 117.904 92.5432 119.736 84.7171 119.634ZM82.2962 59.3135C80.7233 59.3243 79.1526 59.426 77.5937 59.6179C71.6536 60.3258 66.7655 61.7417 62.7203 63.8654C59.8172 65.3756 57.3112 67.4502 55.3788 69.9428C53.4465 72.4355 52.1349 75.2857 51.5363 78.2925C50.585 82.809 49.2701 91.5092 50.585 99.3669C51.1341 102.708 52.5882 107.416 56.3781 110.885C58.8763 113.171 62.2253 114.856 67.2063 116.343C70.9152 117.45 74.7377 118.209 78.6146 118.608C89.0948 119.691 98.8016 117.999 106.683 113.723C108.516 112.725 111.099 111.125 112.337 108.768C113.435 106.644 112.971 103.36 111.888 101.399C111.053 99.8979 109.568 99.2041 107.967 98.4679C106.985 98.0471 106.054 97.5322 105.19 96.9317C102.63 95.0133 101.942 91.1411 101.439 88.3236L99.4667 77.4147C98.3375 71.1427 96.7751 64.7432 91.392 61.4939C89.0329 60.0214 86.0629 59.3135 82.2962 59.3135Z" fill="#D8DCEE"/>
<path d="M56.2387 108.57C56.1613 108.57 56.0855 108.549 56.0209 108.51C55.9562 108.471 55.9055 108.415 55.8752 108.35C55.8563 108.307 55.847 108.261 55.8477 108.214C55.8484 108.168 55.8591 108.122 55.8792 108.079C55.8993 108.036 55.9285 107.998 55.9649 107.965C56.0014 107.933 56.0445 107.907 56.0917 107.89C61.0573 106.007 64.3676 106.474 64.5068 106.474C64.5576 106.481 64.6064 106.497 64.6504 106.522C64.6944 106.546 64.7328 106.578 64.7633 106.616C64.7938 106.653 64.8159 106.696 64.8283 106.742C64.8407 106.787 64.8432 106.835 64.8355 106.881C64.8279 106.928 64.8104 106.972 64.7839 107.013C64.7574 107.053 64.7226 107.088 64.6813 107.116C64.64 107.144 64.5931 107.164 64.5432 107.176C64.4934 107.187 64.4416 107.189 64.3908 107.182C64.3908 107.182 61.1346 106.757 56.3857 108.556C56.3384 108.57 56.2882 108.575 56.2387 108.57Z" fill="#D8DCEE"/>
<path d="M255.602 59.8159C267.165 67.5109 268.673 83.5521 268.99 95.6006C269.284 106.927 266.523 117.744 263.94 128.794C261.418 139.604 251.835 145.501 240.396 147.908C223.38 151.511 204.818 151.929 187.546 150.187C170.275 148.446 169.827 132.872 171.559 120.123C172.039 116.583 174.754 114.396 177.685 112.484C181.312 110.267 184.476 107.474 187.028 104.237C195.219 93.3849 195.691 80.4868 201.151 68.6789C205.467 59.3275 215.073 52.8147 226.219 53.1403C237.364 53.466 247.922 54.7048 255.602 59.8159Z" fill="white"/>
<path d="M207.161 151.561C200.587 151.556 194.019 151.223 187.485 150.563C182.117 150.018 177.971 148.085 175.156 144.822C170.871 139.866 169.564 131.775 171.157 120.101C171.652 116.449 174.468 114.155 177.438 112.222C181.73 109.391 184.491 106.977 186.719 104.06C191.669 97.4626 193.835 89.9658 195.923 82.7098C197.179 77.8891 198.812 73.1574 200.811 68.5516C205.382 58.6409 215.391 52.5034 226.242 52.8007C236.297 53.098 247.713 54.1315 255.842 59.54C267.211 67.1075 269.052 82.7877 269.393 95.6433C269.671 106.226 267.343 116.116 264.876 126.593L264.334 128.915C262.725 135.803 257.288 144.758 240.497 148.326C229.553 150.55 218.371 151.635 207.161 151.561ZM225.384 53.4803C215.135 53.4803 205.808 59.4338 201.476 68.8136C199.494 73.3931 197.871 78.0961 196.619 82.8868C194.515 90.1994 192.342 97.7528 187.338 104.464C185.095 107.451 182.272 109.943 177.902 112.796C175.079 114.636 172.403 116.81 171.938 120.186C170.392 131.662 171.629 139.576 175.806 144.383C178.49 147.49 182.465 149.338 187.616 149.855C206.225 151.738 224.455 150.952 240.326 147.582C256.724 144.1 261.983 135.406 263.584 128.717L264.133 126.395C266.585 115.96 268.898 106.106 268.627 95.6079C267.993 71.539 261.225 63.9785 255.393 60.0992C247.434 54.8041 236.181 53.7918 226.227 53.4944L225.384 53.4803Z" fill="#231F20"/>
<path d="M225.283 119.634C217.436 119.746 209.702 117.914 202.899 114.332C200.981 113.291 198.259 111.607 196.936 109.044C195.737 106.722 196.232 103.161 197.4 101.052C198.351 99.3457 200.03 98.5599 201.662 97.8096C202.594 97.4089 203.478 96.9202 204.299 96.3513C206.62 94.6027 207.292 90.8933 207.772 88.182L209.744 77.2732C210.904 70.8454 212.513 64.283 218.159 60.8709C221.617 58.7826 226.18 58.1596 232.522 58.9171C238.563 59.625 243.528 61.0408 247.69 63.2849C250.687 64.8478 253.275 66.9922 255.271 69.5677C257.268 72.1432 258.624 75.0873 259.245 78.1934C260.165 82.724 261.511 91.5163 260.196 99.4731C259.632 102.921 258.123 107.784 254.186 111.387C251.595 113.752 248.146 115.493 243.01 117.015C239.237 118.136 235.35 118.907 231.409 119.316C229.375 119.525 227.33 119.631 225.283 119.634ZM227.704 59.3135C223.922 59.3135 220.952 60.0214 218.569 61.4373C213.155 64.6866 211.608 71.086 210.495 77.3581L208.522 88.267C208.02 91.0986 207.331 94.9567 204.771 96.8751C203.907 97.4755 202.977 97.9905 201.994 98.4113C200.447 99.1192 198.901 99.8271 198.073 101.342C196.99 103.303 196.526 106.588 197.624 108.711C198.862 111.097 201.445 112.697 203.278 113.667C211.16 117.914 220.859 119.634 231.347 118.551C235.224 118.152 239.046 117.393 242.755 116.286C247.775 114.799 251.124 113.115 253.583 110.828C257.373 107.359 258.827 102.652 259.376 99.3103C260.676 91.4525 259.376 82.7524 258.425 78.2713C257.826 75.2644 256.515 72.4143 254.582 69.9216C252.65 67.4289 250.144 65.3544 247.241 63.8441C243.173 61.6779 238.308 60.3046 232.368 59.5967C230.821 59.4131 229.263 59.3185 227.704 59.3135Z" fill="#D8DCEE"/>
<path d="M253.761 108.57C253.713 108.58 253.662 108.58 253.614 108.57C248.865 106.771 245.648 107.196 245.609 107.196C245.558 107.203 245.506 107.201 245.457 107.19C245.407 107.178 245.36 107.158 245.319 107.13C245.277 107.102 245.242 107.067 245.216 107.027C245.189 106.987 245.172 106.942 245.164 106.895C245.157 106.849 245.159 106.801 245.171 106.756C245.184 106.71 245.206 106.667 245.236 106.63C245.267 106.592 245.305 106.56 245.349 106.536C245.393 106.511 245.442 106.495 245.493 106.488C245.632 106.488 248.943 106.028 253.908 107.904C253.955 107.921 253.998 107.947 254.035 107.979C254.071 108.012 254.1 108.05 254.121 108.093C254.141 108.136 254.151 108.182 254.152 108.228C254.153 108.275 254.143 108.321 254.125 108.364C254.092 108.427 254.04 108.479 253.976 108.516C253.911 108.552 253.837 108.571 253.761 108.57Z" fill="#D8DCEE"/>
<path d="M197.377 67.2774L173.4 55.243C173.4 55.243 172.016 51.6185 170.531 50.5071C169.046 49.3956 169.966 53.3387 169.966 53.3387C169.966 53.3387 161.768 48.5462 160.924 49.8416C160.081 51.1371 158.681 56.4181 161.481 58.4639C163.949 60.2549 168.543 60.708 168.543 60.708C181.351 70.1586 199.427 80.6002 199.427 80.6002" fill="white"/>
<path d="M199.427 80.9401C199.355 80.9386 199.286 80.919 199.226 80.8835C199.04 80.7773 181.057 70.371 168.381 61.0621C167.607 60.9771 163.578 60.4533 161.242 58.7543C158.31 56.6306 159.61 51.1655 160.592 49.6718C160.653 49.5789 160.735 49.4989 160.833 49.4367C160.93 49.3745 161.04 49.3316 161.157 49.3108C162.704 48.971 167.491 51.5407 169.425 52.6238C169.247 51.5973 169.17 50.3939 169.734 50.0753C169.943 49.9621 170.283 49.8984 170.771 50.2594C172.186 51.3 173.423 54.3228 173.694 54.9953L197.563 67.0297C197.653 67.0748 197.72 67.1508 197.749 67.2411C197.778 67.3314 197.767 67.4285 197.717 67.5111C197.668 67.5937 197.585 67.655 197.486 67.6816C197.388 67.7081 197.282 67.6977 197.191 67.6527L173.215 55.6183C173.172 55.5994 173.134 55.5727 173.104 55.5398C173.073 55.5069 173.05 55.4685 173.037 55.4271C173.037 55.4271 171.699 51.8876 170.306 50.8823L170.152 50.7832C170.047 51.6423 170.12 52.5118 170.368 53.3459C170.386 53.4143 170.381 53.4862 170.354 53.552C170.326 53.6178 170.277 53.6743 170.214 53.714C170.149 53.7518 170.074 53.7719 169.997 53.7719C169.92 53.7719 169.845 53.7518 169.781 53.714C167.143 52.1707 162.51 49.8134 161.358 50.0683C161.311 50.0683 161.28 50.0683 161.28 50.0683C160.414 51.385 159.208 56.3828 161.744 58.2304C164.065 59.9436 168.559 60.4037 168.605 60.4037C168.678 60.4129 168.748 60.4398 168.806 60.4816C181.452 69.8118 199.481 80.2464 199.659 80.3455C199.744 80.3963 199.805 80.4757 199.828 80.5668C199.851 80.6579 199.835 80.7537 199.782 80.8339C199.737 80.8767 199.681 80.9087 199.619 80.9272C199.557 80.9457 199.491 80.9501 199.427 80.9401Z" fill="#231F20"/>
<path d="M191.437 135.442C191.437 135.442 193.177 153.621 192.466 154.796C191.754 155.971 174.715 158.336 174.406 156.672C174.096 155.008 182.744 151.717 182.744 151.717L180.841 136.851" fill="white"/>
<path d="M176.973 157.585C176.415 157.596 175.856 157.563 175.303 157.486C174.8 157.408 174.119 157.245 174.019 156.736C173.702 155.001 179.974 152.424 182.326 151.525L180.454 136.928C180.448 136.882 180.452 136.835 180.466 136.79C180.479 136.745 180.503 136.702 180.534 136.666C180.566 136.629 180.605 136.598 180.65 136.575C180.694 136.552 180.744 136.538 180.794 136.532C180.845 136.526 180.897 136.53 180.946 136.543C180.995 136.555 181.041 136.577 181.081 136.606C181.122 136.634 181.155 136.67 181.18 136.711C181.205 136.752 181.221 136.797 181.227 136.843L183.13 151.709C183.14 151.786 183.121 151.864 183.078 151.931C183.035 151.997 182.969 152.049 182.89 152.078C178.868 153.593 174.622 155.759 174.785 156.615C174.785 156.615 175.009 156.842 176.664 156.884C181.63 157.033 191.491 155.313 192.133 154.612C192.597 153.72 191.715 142.4 191.05 135.498C191.046 135.452 191.051 135.405 191.066 135.36C191.082 135.316 191.106 135.275 191.139 135.239C191.172 135.203 191.212 135.173 191.257 135.152C191.302 135.13 191.351 135.117 191.402 135.113C191.453 135.108 191.504 135.113 191.553 135.127C191.601 135.141 191.647 135.164 191.686 135.194C191.725 135.224 191.757 135.26 191.781 135.302C191.805 135.343 191.819 135.388 191.824 135.435C192.118 138.486 193.541 153.784 192.806 154.987C192.071 156.191 181.746 157.585 176.973 157.585Z" fill="#231F20"/>
<path d="M216.636 140.213C216.636 140.213 219.026 156.276 217.788 156.736C216.551 157.196 199.728 157.925 199.999 156.573C200.27 155.221 208.569 152.644 208.569 152.644L205.568 136.985" fill="white"/>
<path d="M206.651 157.72C203.379 157.72 200.517 157.543 199.852 157.054C199.762 156.993 199.692 156.911 199.65 156.816C199.607 156.721 199.594 156.617 199.612 156.516C199.875 155.1 205.8 153.132 208.12 152.41L205.166 137.042C205.15 136.95 205.174 136.856 205.234 136.78C205.293 136.705 205.382 136.654 205.483 136.638C205.532 136.629 205.584 136.629 205.634 136.638C205.683 136.648 205.731 136.666 205.773 136.693C205.814 136.719 205.85 136.753 205.877 136.792C205.905 136.832 205.923 136.875 205.931 136.921L208.94 152.58C208.956 152.665 208.938 152.753 208.89 152.827C208.842 152.901 208.766 152.956 208.677 152.984C204.941 154.138 200.842 155.815 200.401 156.523C200.865 156.764 203.077 157.068 208.909 156.948C211.806 156.938 214.7 156.755 217.572 156.403C218.105 155.511 217.316 147.54 216.226 140.241C216.213 140.148 216.24 140.053 216.302 139.977C216.364 139.902 216.456 139.852 216.558 139.838C216.609 139.831 216.66 139.833 216.71 139.845C216.759 139.857 216.805 139.877 216.846 139.906C216.886 139.934 216.92 139.97 216.945 140.01C216.97 140.051 216.986 140.096 216.992 140.142C218.105 147.597 219.165 156.573 217.912 157.04C217.185 157.344 211.461 157.72 206.651 157.72Z" fill="#231F20"/>
<path d="M198.104 108.01C197.694 109.299 194.105 143.052 194.105 143.052H179.634C179.634 143.052 172.975 109.157 175.164 100.79C176.664 95.0274 183.502 92.2099 190.463 94.0788C200.819 93.7036 211.462 92.4931 211.462 92.4931L198.104 108.01Z" fill="#231F20"/>
<path d="M194.105 143.406H179.634C179.544 143.407 179.456 143.378 179.386 143.325C179.316 143.272 179.27 143.197 179.255 143.116C178.985 141.7 172.604 109.051 174.785 100.705C175.114 99.4426 175.722 98.2555 176.572 97.2169C177.422 96.1783 178.496 95.3103 179.727 94.6664C181.364 93.857 183.161 93.356 185.013 93.1931C186.865 93.0301 188.734 93.2086 190.509 93.7178C200.711 93.3497 211.307 92.1533 211.392 92.1463C211.468 92.1362 211.546 92.1477 211.616 92.1793C211.685 92.211 211.742 92.2612 211.779 92.3232C211.816 92.3842 211.832 92.4539 211.825 92.5234C211.818 92.5928 211.788 92.6588 211.74 92.7126L198.437 108.166C198.05 109.858 195.451 133.849 194.469 143.087C194.46 143.171 194.418 143.25 194.352 143.308C194.285 143.367 194.198 143.401 194.105 143.406ZM179.959 142.698H193.757C194.144 139.045 197.338 109.164 197.733 107.911C197.748 107.868 197.772 107.827 197.802 107.791L210.58 92.925C207.757 93.2223 198.978 94.1072 190.47 94.4116H190.346C188.664 93.9184 186.89 93.7407 185.13 93.8891C183.371 94.0375 181.662 94.5089 180.106 95.2752C178.962 95.8643 177.964 96.6652 177.177 97.6269C176.39 98.5886 175.831 99.6899 175.535 100.861C173.501 108.662 179.317 139.399 179.959 142.698Z" fill="#231F20"/>
<path d="M242.778 97.2077C242.778 97.2077 247.334 104.131 240.295 111.925C233.257 119.719 213.225 111.522 213.225 111.522L218.229 142.018L203.533 141.884C203.533 141.884 188.219 100.365 189.983 96.068C191.746 91.771 204.291 89.7889 204.291 89.7889L242.778 97.2077Z" fill="#231F20"/>
<path d="M218.206 142.372L203.51 142.238C203.43 142.237 203.352 142.214 203.287 142.171C203.221 142.127 203.173 142.067 203.147 141.997C202.52 140.298 187.802 100.308 189.596 95.9405C191.391 91.5727 203.681 89.5269 204.207 89.4419C204.255 89.4348 204.305 89.4348 204.353 89.4419L242.856 96.8608C242.909 96.8715 242.959 96.8922 243.003 96.9214C243.046 96.9506 243.083 96.9878 243.111 97.0307C243.157 97.1015 247.751 104.251 240.589 112.152C237.619 115.443 231.888 116.399 224.03 114.983C220.491 114.309 217.027 113.34 213.681 112.088L218.585 141.962C218.594 142.012 218.591 142.063 218.577 142.112C218.562 142.161 218.536 142.206 218.5 142.245C218.463 142.284 218.418 142.315 218.368 142.337C218.317 142.359 218.262 142.371 218.206 142.372ZM203.789 141.523L217.757 141.657L212.815 111.564C212.805 111.501 212.813 111.437 212.839 111.378C212.865 111.319 212.909 111.268 212.964 111.229C213.019 111.191 213.085 111.167 213.154 111.16C213.223 111.153 213.293 111.163 213.356 111.189C213.557 111.274 233.226 119.188 239.994 111.691C243.536 107.77 244.016 104.096 243.791 101.703C243.667 100.247 243.237 98.8258 242.523 97.5192L204.268 90.1498C203.247 90.3197 191.893 92.2736 190.346 96.1883C188.923 99.5933 199.481 129.835 203.789 141.523Z" fill="#231F20"/>
<path d="M195.08 118.572C195.003 118.573 194.928 118.552 194.865 118.513C194.801 118.474 194.752 118.418 194.724 118.353C194.391 117.581 186.611 99.3739 189.055 94.8079C189.173 94.5539 189.351 94.3266 189.575 94.142C189.8 93.9574 190.065 93.8198 190.354 93.739C190.403 93.7259 190.454 93.7218 190.504 93.7269C190.555 93.7319 190.604 93.746 190.648 93.7684C190.693 93.7907 190.732 93.8209 190.764 93.8571C190.796 93.8934 190.819 93.935 190.834 93.9796C190.86 94.0697 190.848 94.1658 190.799 94.2476C190.75 94.3294 190.668 94.3907 190.571 94.4186C190.385 94.474 190.216 94.5662 190.074 94.6886C189.932 94.8109 189.822 94.9605 189.751 95.1265C187.43 99.4164 195.358 117.914 195.443 118.098C195.462 118.142 195.471 118.188 195.47 118.235C195.468 118.282 195.457 118.328 195.436 118.371C195.415 118.414 195.385 118.452 195.348 118.485C195.311 118.517 195.267 118.542 195.219 118.558L195.08 118.572Z" fill="white"/>
<path d="M213.202 111.876C213.131 111.877 213.061 111.86 213.001 111.826C212.807 111.72 208.244 109.171 206.952 107.366C206.924 107.328 206.903 107.285 206.893 107.239C206.883 107.194 206.883 107.147 206.893 107.101C206.903 107.055 206.923 107.012 206.952 106.974C206.981 106.935 207.018 106.903 207.061 106.878C207.146 106.827 207.25 106.808 207.35 106.827C207.45 106.845 207.537 106.899 207.594 106.977C208.793 108.655 213.356 111.224 213.403 111.224C213.49 111.274 213.552 111.353 213.577 111.444C213.601 111.535 213.586 111.632 213.534 111.713C213.498 111.763 213.448 111.804 213.39 111.832C213.332 111.86 213.267 111.875 213.202 111.876Z" fill="white"/>
<path d="M242.778 97.2078C242.778 97.2078 258.936 60.7718 247.001 52.4114C235.067 44.051 218.059 47.7746 215.739 55.5899C213.418 63.4052 204.269 89.7889 204.269 89.7889C204.269 89.7889 233.582 97.7883 242.778 97.2078Z" fill="#4BBBFA"/>
<path d="M225.886 56.3826L223.094 82.1008L238.494 54.5632L225.886 56.3826Z" fill="#231F20"/>
<path d="M223.063 82.4549C223.025 82.4618 222.985 82.4618 222.947 82.4549C222.86 82.4333 222.784 82.3832 222.734 82.3142C222.684 82.2451 222.664 82.1617 222.676 82.0797L225.476 56.3614C225.484 56.2828 225.52 56.2087 225.579 56.151C225.638 56.0933 225.716 56.0552 225.801 56.0429L238.401 54.2306C238.472 54.2186 238.546 54.2255 238.613 54.2506C238.68 54.2757 238.738 54.3179 238.78 54.3722C238.816 54.4279 238.835 54.4915 238.835 54.5563C238.835 54.621 238.816 54.6846 238.78 54.7403L223.373 82.2779C223.341 82.3285 223.296 82.3711 223.242 82.4019C223.188 82.4328 223.127 82.451 223.063 82.4549ZM226.211 56.6871L223.643 80.2746L237.774 55.0235L226.211 56.6871Z" fill="#231F20"/>
<path d="M216.798 52.4539L196.627 65.5147L198.468 82.101L220.085 73.7406C220.085 73.7406 223.666 55.3917 216.798 52.4539Z" fill="#4BBBFA"/>
<path d="M224.61 52.829C226.06 52.3829 227.599 52.2307 229.119 52.383C231.494 52.7653 233.667 53.7988 236.08 54.1245C238.741 54.3439 241.417 54.3439 244.078 54.1245C244.851 54.0891 244.078 55.0448 244.727 54.6342C246.908 53.1759 246.8 50.2876 246.792 48.1214C246.859 43.1043 246.174 38.1025 244.758 33.2554C243.985 30.7352 240.93 21.5112 236.467 25.4684C237.472 24.5693 232.6 22.4739 231.904 22.2969C225.577 20.69 219.838 25.7799 218.422 31.075C217.394 34.9189 217.316 38.7346 215.329 42.3449C214.447 43.9377 213.302 45.5092 213.225 47.3002C213.245 48.3797 213.591 49.4331 214.226 50.343C214.861 51.2528 215.76 51.9836 216.821 52.4538C218.977 53.3603 221.406 53.5627 223.705 53.0272L224.61 52.829Z" fill="black"/>
<path d="M244.503 55.0872C244.43 55.0859 244.359 55.069 244.294 55.0377C244.207 54.9836 244.139 54.907 244.099 54.8175C244.059 54.728 244.049 54.6297 244.07 54.535V54.4855L242.856 54.535C240.582 54.7074 238.296 54.6885 236.026 54.4784C234.74 54.2781 233.476 53.97 232.252 53.5581C231.206 53.2093 230.133 52.9348 229.042 52.737C227.651 52.5907 226.242 52.7211 224.912 53.1192L224.687 53.1688L223.767 53.3741C221.381 53.919 218.863 53.7043 216.628 52.7653C215.499 52.2685 214.544 51.493 213.87 50.5262C213.196 49.5594 212.831 48.4397 212.815 47.2931C212.997 45.7797 213.561 44.3257 214.462 43.0457C214.633 42.7555 214.803 42.4652 214.965 42.175C216.295 39.7822 216.76 37.3258 217.285 34.7278C217.51 33.5031 217.75 32.243 218.059 30.983C218.975 27.6385 221.281 24.7533 224.486 22.9411C225.602 22.3142 226.845 21.9028 228.141 21.7324C229.436 21.5619 230.756 21.636 232.02 21.9501C232.46 22.0633 236.065 23.5074 236.846 24.718C237.192 24.4605 237.598 24.2799 238.033 24.1902C238.467 24.1006 238.919 24.1043 239.352 24.2012C242.059 24.8666 243.993 29.4185 245.145 33.1208C246.579 38.0036 247.269 43.0445 247.195 48.1002V48.3692C247.195 50.4929 247.195 53.4024 244.967 54.9031C244.837 55.0073 244.675 55.0717 244.503 55.0872ZM244.109 53.7422C244.208 53.7374 244.307 53.7512 244.4 53.7829C244.493 53.8145 244.578 53.8633 244.65 53.9262C244.706 53.9795 244.751 54.0419 244.781 54.1103C246.437 52.7653 246.421 50.3301 246.413 48.355V48.0931C246.486 43.0999 245.807 38.1213 244.395 33.2978C242.848 28.3425 240.984 25.3197 239.151 24.8737C238.705 24.797 238.246 24.8336 237.821 24.9797C237.397 25.1257 237.025 25.3756 236.745 25.702C236.671 25.7677 236.572 25.8038 236.469 25.8025C236.366 25.8012 236.268 25.7625 236.196 25.6949C236.124 25.6273 236.085 25.5364 236.086 25.4421C236.088 25.3479 236.13 25.258 236.204 25.1923C236.343 24.6613 232.886 22.8916 231.803 22.6155C230.636 22.3231 229.415 22.2539 228.218 22.4122C227.02 22.5706 225.871 22.953 224.842 23.5358C221.815 25.2491 219.639 27.9774 218.778 31.1387C218.446 32.3705 218.214 33.6234 218.005 34.834C217.533 37.3754 217.038 39.9946 215.684 42.4864C215.522 42.7767 215.344 43.0669 215.174 43.3643C214.343 44.5486 213.814 45.8891 213.627 47.2861C213.644 48.2989 213.971 49.2871 214.569 50.139C215.168 50.9909 216.015 51.6726 217.015 52.1069C219.093 52.972 221.43 53.1642 223.643 52.652L224.54 52.4538L224.765 52.4042C226.199 51.9806 227.716 51.8454 229.212 52.0078C230.342 52.2157 231.454 52.4997 232.538 52.8573C233.717 53.2553 234.934 53.5539 236.173 53.7493C238.394 53.9535 240.631 53.9701 242.856 53.7988L244.093 53.7422H244.109Z" fill="#231F20"/>
<path d="M220.828 33.1349C220.828 33.1349 218.716 39.0742 219.977 43.5128C220.293 44.7528 220.997 45.8817 222.002 46.7617C223.008 47.6417 224.271 48.2347 225.639 48.4681L225.886 56.3755C225.886 56.3755 225.979 60.4247 231.37 59.6531C232.934 59.4298 234.409 58.8443 235.656 57.9522C236.902 57.0602 237.879 55.8911 238.493 54.5561L238.648 39.9945C238.648 39.9945 232.406 36.9222 232.77 31.6907C232.77 31.6978 225.577 35.1241 220.828 33.1349Z" fill="white"/>
<path d="M230.078 60.1134C228.961 60.1603 227.862 59.836 226.985 59.2002C226.546 58.8409 226.19 58.4056 225.936 57.9196C225.683 57.4336 225.537 56.9064 225.507 56.3685L225.26 48.7868C223.887 48.4893 222.632 47.8496 221.632 46.9386C220.633 46.0277 219.929 44.8811 219.598 43.6262C218.33 39.1381 220.372 33.2907 220.464 33.0076C220.481 32.9608 220.508 32.9178 220.544 32.8813C220.58 32.8447 220.624 32.8154 220.673 32.7952C220.723 32.7759 220.777 32.766 220.832 32.766C220.886 32.766 220.94 32.7759 220.99 32.7952C225.515 34.6924 232.522 31.3794 232.592 31.3794C232.652 31.3484 232.72 31.3321 232.789 31.3321C232.858 31.3321 232.926 31.3484 232.986 31.3794C233.043 31.4141 233.088 31.4618 233.118 31.5178C233.148 31.5737 233.161 31.6358 233.157 31.6979C232.809 36.6533 238.772 39.6407 238.826 39.669C238.888 39.6986 238.941 39.7433 238.978 39.7982C239.015 39.853 239.034 39.9161 239.035 39.9805L238.88 54.5492C238.888 54.5867 238.888 54.625 238.88 54.6625C238.25 56.0609 237.235 57.2861 235.933 58.219C234.632 59.1519 233.089 59.7606 231.455 59.9859C231.001 60.0629 230.54 60.1055 230.078 60.1134ZM221.075 33.6164C220.65 34.9685 219.312 39.761 220.348 43.4209C220.637 44.5967 221.297 45.669 222.246 46.5047C223.194 47.3403 224.39 47.9025 225.685 48.1214C225.777 48.1315 225.862 48.1713 225.924 48.2337C225.986 48.296 226.022 48.3767 226.025 48.4612L226.273 56.3685C226.334 57.2477 226.767 58.0705 227.48 58.6621C228.354 59.3701 229.645 59.547 231.347 59.3134C232.83 59.096 234.229 58.5404 235.416 57.698C236.603 56.8555 237.539 55.7532 238.138 54.4926L238.285 40.207C237.217 39.6336 232.484 36.8303 232.399 32.2643C230.597 33.0217 225.167 35.0464 221.075 33.6164Z" fill="#231F20"/>
<path d="M235.616 39.0603C235.616 39.0603 238.114 33.4961 241.231 36.8799C244.348 40.2637 240.087 44.1714 237.411 43.9165" fill="white"/>
<path d="M237.666 44.2845H237.372C237.321 44.2801 237.272 44.2665 237.226 44.2445C237.181 44.2224 237.141 44.1925 237.109 44.1563C237.077 44.1201 237.052 44.0783 237.038 44.0335C237.023 43.9887 237.018 43.9417 237.024 43.8951C237.029 43.8486 237.043 43.8033 237.068 43.7621C237.092 43.7208 237.124 43.6843 237.164 43.6547C237.203 43.625 237.249 43.6029 237.298 43.5895C237.347 43.5761 237.398 43.5717 237.449 43.5766C238.795 43.704 240.605 42.6209 241.448 41.1555C241.842 40.5204 242.004 39.7871 241.913 39.0617C241.821 38.3363 241.479 37.6564 240.937 37.1205C240.726 36.8172 240.43 36.57 240.082 36.4036C239.733 36.2371 239.343 36.1572 238.95 36.1719C237.542 36.3701 236.328 38.4301 235.98 39.2088C235.941 39.2961 235.865 39.3657 235.77 39.4022C235.675 39.4387 235.568 39.4391 235.473 39.4035C235.378 39.3678 235.302 39.2989 235.262 39.212C235.222 39.125 235.221 39.0271 235.26 38.9398C235.322 38.8053 236.707 35.7754 238.834 35.471C239.77 35.3365 240.674 35.74 241.533 36.6674C242.171 37.3129 242.572 38.1247 242.68 38.9892C242.788 39.8537 242.598 40.7276 242.136 41.4883C241.193 43.1235 239.305 44.2845 237.666 44.2845Z" fill="#231F20"/>
<path d="M224.332 43.6828C223.912 43.694 223.495 43.6215 223.11 43.4704C223.016 43.4292 222.933 43.3689 222.869 43.294C222.805 43.2192 222.76 43.1318 222.738 43.0386C222.452 42.0263 224.533 39.2372 225.182 38.4018C225.211 38.3638 225.248 38.3313 225.29 38.3064C225.333 38.2815 225.38 38.2646 225.43 38.2567C225.479 38.2487 225.53 38.25 225.58 38.2603C225.629 38.2707 225.675 38.2899 225.716 38.3169C225.758 38.3437 225.793 38.3778 225.821 38.4173C225.848 38.4568 225.867 38.5009 225.875 38.5469C225.884 38.593 225.883 38.6402 225.871 38.6858C225.86 38.7313 225.839 38.7744 225.809 38.8124C224.417 40.6105 223.326 42.5077 223.489 42.8687C224.297 43.0271 225.138 42.9881 225.925 42.7555C225.976 42.742 226.029 42.7378 226.081 42.7431C226.134 42.7485 226.185 42.7632 226.231 42.7866C226.278 42.8099 226.318 42.8413 226.351 42.8791C226.384 42.9169 226.409 42.9603 226.424 43.0068C226.438 43.0532 226.443 43.1019 226.437 43.15C226.431 43.1981 226.415 43.2447 226.39 43.2871C226.364 43.3295 226.33 43.3669 226.289 43.3971C226.247 43.4274 226.2 43.4499 226.149 43.4634C225.557 43.613 224.946 43.6868 224.332 43.6828Z" fill="#231F20"/>
<path d="M225.639 48.4753C225.639 48.4753 230.279 48.8859 232.901 48.1921C232.901 48.1921 230.202 54.4996 225.817 54.5633L225.639 48.4753Z" fill="#231F20"/>
<path d="M225.817 54.9385C225.715 54.9386 225.618 54.9022 225.546 54.8374C225.474 54.7725 225.432 54.6843 225.43 54.5917L225.252 48.4824C225.251 48.4322 225.261 48.3823 225.282 48.336C225.304 48.2898 225.335 48.2482 225.376 48.214C225.416 48.1799 225.464 48.1539 225.516 48.138C225.568 48.122 225.623 48.1163 225.677 48.1214C225.724 48.1214 230.264 48.5178 232.793 47.8524C232.862 47.8326 232.936 47.8315 233.006 47.849C233.076 47.8666 233.139 47.9022 233.188 47.9515C233.237 48.0001 233.27 48.0603 233.284 48.1254C233.298 48.1905 233.291 48.2578 233.265 48.3196C233.149 48.5886 230.419 54.8465 225.824 54.9385H225.817ZM226.033 48.8576L226.188 54.2023C229.282 53.8625 231.463 50.2026 232.236 48.7019C230.182 48.9701 228.101 49.0224 226.033 48.8576Z" fill="#231F20"/>
<path d="M229.175 37.7095C229.192 37.1076 228.901 36.6126 228.525 36.6038C228.149 36.595 227.831 37.0759 227.814 37.6777C227.797 38.2796 228.088 38.7747 228.464 38.7835C228.84 38.7922 229.158 38.3114 229.175 37.7095Z" fill="#231F20"/>
<path d="M222.913 37.5694C222.93 36.9675 222.639 36.4724 222.263 36.4637C221.887 36.4549 221.569 36.9357 221.552 37.5376C221.536 38.1395 221.827 38.6345 222.202 38.6433C222.578 38.6521 222.896 38.1712 222.913 37.5694Z" fill="#231F20"/>
<path d="M246.707 45.2471C247.04 49.8981 247.481 58.4496 239.406 56.34C237.733 55.8815 236.314 54.8561 235.438 53.473C233.891 50.9387 238.053 47.2717 240.025 45.6223" fill="black"/>
<path d="M241.703 57.027C240.888 57.0162 240.078 56.9018 239.298 56.6872C237.509 56.2145 235.991 55.1227 235.067 53.6432C233.466 51.0665 236.962 47.6827 239.708 45.3607C239.781 45.2954 239.88 45.2589 239.982 45.2589C240.085 45.2589 240.183 45.2954 240.257 45.3607C240.293 45.3936 240.322 45.4328 240.341 45.4759C240.361 45.519 240.371 45.5653 240.371 45.612C240.371 45.6588 240.361 45.705 240.341 45.7482C240.322 45.7913 240.293 45.8304 240.257 45.8633C238.772 47.1093 234.263 50.8895 235.748 53.2751C236.574 54.5924 237.928 55.5645 239.522 55.9864C241.548 56.5173 243.142 56.3687 244.255 55.5475C246.924 53.5725 246.522 47.9587 246.328 45.2616C246.325 45.2151 246.331 45.1685 246.347 45.1243C246.364 45.0801 246.389 45.0392 246.422 45.0041C246.456 44.9689 246.496 44.9401 246.542 44.9193C246.588 44.8985 246.637 44.8861 246.688 44.8829C246.739 44.8796 246.79 44.8856 246.838 44.9003C246.886 44.9151 246.931 44.9385 246.969 44.969C247.008 44.9996 247.039 45.0368 247.062 45.0785C247.085 45.1202 247.098 45.1656 247.102 45.2121C247.318 48.249 247.728 53.891 244.735 56.0997C243.876 56.7277 242.802 57.0563 241.703 57.027Z" fill="#231F20"/>
<path d="M229.112 45.2969C229.112 45.6721 228.423 46.0048 227.565 46.0048C226.706 46.0048 227.054 45.6933 227.054 45.2969C227.054 44.9005 226.714 44.589 227.565 44.589C228.415 44.589 229.112 44.9217 229.112 45.2969Z" fill="#231F20"/>
<path d="M248.409 54.3226C248.409 54.3226 241.27 59.7805 241.239 64.3961C241.208 69.0117 246.653 90.5887 246.653 90.5887L261.527 82.9999C261.527 82.9999 255.726 56.1914 248.409 54.3226Z" fill="#4BBBFA"/>
<path d="M205.081 87.7926H204.972C204.923 87.7789 204.878 87.7564 204.839 87.7265C204.799 87.6966 204.767 87.6598 204.743 87.6184C204.719 87.5769 204.705 87.5315 204.7 87.4848C204.696 87.4382 204.701 87.3912 204.717 87.3466L215.375 55.4908C215.385 55.4416 215.406 55.3949 215.437 55.3538C215.468 55.3126 215.508 55.2779 215.554 55.2519C215.601 55.2259 215.653 55.2093 215.707 55.203C215.761 55.1968 215.816 55.2011 215.868 55.2157C215.921 55.2303 215.969 55.2548 216.01 55.2876C216.051 55.3205 216.084 55.3609 216.107 55.4063C216.13 55.4517 216.142 55.5009 216.142 55.5509C216.143 55.6008 216.132 55.6503 216.11 55.696L205.452 87.5519C205.426 87.6228 205.376 87.6842 205.309 87.7275C205.242 87.7707 205.162 87.7935 205.081 87.7926Z" fill="#231F20"/>
<path d="M246.8 89.4702C246.712 89.4719 246.625 89.4453 246.556 89.3948C246.487 89.3444 246.439 89.2734 246.421 89.1942C240.396 64.5944 240.767 64.3041 241.007 64.1272C241.081 64.0618 241.179 64.0253 241.282 64.0253C241.384 64.0253 241.482 64.0618 241.556 64.1272C241.601 64.174 241.63 64.2309 241.643 64.2919C241.655 64.3529 241.649 64.4158 241.626 64.474C241.626 65.6279 244.928 79.7294 247.202 89.003C247.214 89.0486 247.215 89.0958 247.206 89.1418C247.198 89.1879 247.179 89.232 247.152 89.2715C247.125 89.3109 247.089 89.3451 247.047 89.3719C247.005 89.3987 246.958 89.4177 246.908 89.4278L246.8 89.4702Z" fill="#231F20"/>
<path d="M226.041 89.1164L198.313 98.6802L186 90.5888L210.239 83.892L226.041 89.1164Z" fill="white"/>
<path d="M198.313 99.0482C198.23 99.0489 198.149 99.0267 198.081 98.9845L185.775 90.8861C185.715 90.8481 185.668 90.7955 185.639 90.7341C185.611 90.6727 185.601 90.6051 185.613 90.5392C185.627 90.475 185.659 90.4155 185.707 90.3669C185.754 90.3183 185.815 90.2824 185.884 90.2631L210.123 83.5734C210.204 83.5521 210.29 83.5521 210.371 83.5734L226.157 88.7836C226.23 88.8107 226.293 88.8565 226.338 88.9155C226.383 88.9745 226.409 89.0442 226.412 89.1163C226.412 89.189 226.388 89.26 226.342 89.3195C226.296 89.3791 226.232 89.4243 226.157 89.449L198.444 99.0482C198.401 99.0555 198.356 99.0555 198.313 99.0482ZM186.858 90.7303L198.367 98.2978L224.919 89.1375L210.224 84.2813L186.858 90.7303Z" fill="#231F20"/>
<path d="M259.794 83.8991C259.794 83.8991 262.888 98.2201 254.465 99.5863C246.042 100.953 218.113 95.9477 218.113 95.9477C218.113 95.9477 208.414 97.5122 209.033 95.2398C209.651 92.9674 215.707 91.9622 215.707 91.9622C215.707 91.9622 210.711 89.7464 213.17 89.7535C215.788 89.8958 218.395 90.1628 220.982 90.5534L246.815 87.4032" fill="white"/>
<path d="M250.644 100.181C240.063 100.181 219.791 96.6414 218.159 96.3086C216.698 96.5423 210.301 97.4696 208.955 96.1387C208.827 96.0143 208.736 95.8612 208.693 95.6947C208.65 95.5283 208.655 95.3543 208.708 95.1901C209.226 93.3425 212.768 92.2948 214.617 91.8701C211.987 90.5958 212.111 90.0932 212.165 89.895C212.281 89.4349 212.939 89.4349 213.217 89.4349C215.837 89.5735 218.447 89.8381 221.037 90.2277L246.815 87.0846C246.918 87.0724 247.022 87.098 247.104 87.1557C247.186 87.2135 247.239 87.2987 247.252 87.3925C247.266 87.4864 247.238 87.5813 247.175 87.6563C247.112 87.7313 247.019 87.7803 246.916 87.7925L221.083 90.9356C221.045 90.9427 221.005 90.9427 220.967 90.9356C218.405 90.5505 215.824 90.2858 213.232 90.1428H213.116C213.999 90.7438 214.948 91.2586 215.947 91.6789C216.019 91.7129 216.078 91.7662 216.115 91.8316C216.153 91.8971 216.168 91.9715 216.157 92.0448C216.147 92.1182 216.113 92.1869 216.059 92.2417C216.004 92.2966 215.933 92.3349 215.854 92.3514C214.238 92.6275 209.938 93.7177 209.481 95.3671C209.458 95.4156 209.452 95.4692 209.463 95.521C209.474 95.5728 209.502 95.6203 209.543 95.6574C210.378 96.4856 215.243 96.0609 218.113 95.6007H218.26C218.538 95.6503 246.204 100.556 254.434 99.2394C255.173 99.1242 255.879 98.8721 256.508 98.4984C257.137 98.1246 257.676 97.6373 258.092 97.0661C261.248 92.8682 259.531 84.3238 259.454 83.9698C259.444 83.9176 259.446 83.864 259.461 83.8126C259.475 83.7613 259.502 83.7135 259.539 83.6725C259.584 83.6194 259.646 83.5798 259.716 83.5584C259.786 83.537 259.862 83.5348 259.933 83.5521C260.004 83.568 260.068 83.6027 260.118 83.6518C260.167 83.7009 260.2 83.7623 260.212 83.8282L259.833 83.899L260.219 83.8353C260.413 84.7697 262.014 93.1089 258.727 97.4696C258.254 98.1191 257.641 98.6729 256.925 99.0966C256.21 99.5204 255.406 99.8051 254.565 99.9331C253.268 100.118 251.956 100.201 250.644 100.181Z" fill="#231F20"/>
<path d="M152.215 144.949C153.018 145.655 154.044 146.111 155.147 146.252C156.439 146.252 170.446 143.887 171.026 145.643C171.606 147.398 170.461 148.276 167.112 149.72C162.626 151.653 147.567 156.191 147.567 156.191L144.272 149.112L152.215 144.949Z" fill="white"/>
<path d="M147.567 156.516C147.497 156.518 147.429 156.499 147.371 156.464C147.312 156.429 147.268 156.378 147.242 156.318L143.947 149.239C143.913 149.167 143.909 149.086 143.937 149.011C143.964 148.937 144.02 148.874 144.094 148.835L152.038 144.673C152.108 144.636 152.19 144.622 152.27 144.634C152.351 144.645 152.424 144.682 152.479 144.737C153.214 145.379 154.149 145.797 155.155 145.933C156.099 145.874 157.039 145.768 157.97 145.614C166.315 144.545 170.917 144.199 171.366 145.551C172.031 147.568 170.639 148.559 167.259 150.018C162.812 151.943 147.83 156.46 147.675 156.509L147.567 156.516ZM144.721 149.246L147.768 155.794C149.934 155.136 162.897 151.179 166.957 149.423C170.399 147.936 171.165 147.179 170.685 145.728C170.337 144.673 161.102 145.855 158.071 146.244C156.369 146.464 155.464 146.556 155.139 146.57C154.033 146.445 152.995 146.015 152.161 145.338L144.721 149.246Z" fill="#231F20"/>
<path d="M108.678 152.545C108.678 152.545 123.691 157.267 124.333 158.166C124.975 159.065 123.838 160.119 119.839 160.445C115.841 160.771 98.732 159.921 98.732 159.921C98.732 159.921 98.5154 155.674 99.5905 153.55C100.666 151.426 108.678 152.545 108.678 152.545Z" fill="white"/>
<path d="M116.985 160.841C110.86 160.841 99.2966 160.275 98.7165 160.247C98.628 160.242 98.5446 160.207 98.4819 160.15C98.4193 160.093 98.3817 160.016 98.3762 159.935C98.3762 159.758 98.1751 155.589 99.2656 153.394C100.418 151.079 107.882 152.106 108.733 152.226H108.787C112.337 153.345 123.969 157.054 124.627 157.982C124.753 158.142 124.829 158.331 124.848 158.527C124.867 158.724 124.828 158.922 124.735 159.1C124.279 159.957 122.593 160.516 119.87 160.749C119.213 160.82 118.207 160.841 116.985 160.841ZM99.0723 159.617C101.454 159.73 116.189 160.417 119.808 160.119C123.304 159.836 123.977 159.065 124.093 158.831C124.136 158.753 124.154 158.666 124.145 158.58C124.135 158.493 124.098 158.411 124.039 158.343C123.444 157.705 114.263 154.647 108.57 152.863C105.569 152.424 100.58 152.262 99.8844 153.663C99.0491 155.398 99.0491 158.633 99.0723 159.617Z" fill="#231F20"/>
<path d="M69.7429 107.784C69.7429 107.784 57.4915 79.7579 58.7755 65.9324C60.0594 52.107 69.9208 51.2646 73.3781 51.0664C76.8354 50.8682 94.9881 48.6524 101.617 56.0925C108.245 63.5326 106.543 99.3669 106.543 99.3669L69.7429 107.784Z" fill="#4BBBFA"/>
<path d="M91.3687 57.4516L91.1444 85.5343L78.1196 55.5686L91.3687 57.4516Z" fill="#231F20"/>
<path d="M91.1441 85.8884C91.0667 85.8885 90.9909 85.8677 90.9263 85.8287C90.8616 85.7897 90.811 85.7341 90.7806 85.6689L77.7558 55.6961C77.733 55.6371 77.7268 55.5738 77.7376 55.5119C77.7484 55.4501 77.7759 55.3918 77.8177 55.3422C77.86 55.2928 77.9162 55.2549 77.9802 55.2325C78.0442 55.21 78.1137 55.2039 78.1812 55.2147L91.4303 57.1049C91.5219 57.1167 91.6058 57.1582 91.6669 57.2219C91.7279 57.2855 91.7619 57.3671 91.7629 57.4517L91.5309 85.5415C91.5288 85.6229 91.4961 85.7011 91.4383 85.763C91.3805 85.8249 91.3012 85.8667 91.2137 85.8813L91.1441 85.8884ZM78.769 56.0076L90.8038 83.7222L91.0126 57.7561L78.769 56.0076Z" fill="#231F20"/>
<path d="M107.294 92.2666C107.294 92.2666 122.268 95.9335 135.656 104.259C141.797 108.074 153.267 145.508 153.267 145.508C153.267 145.508 151.984 151.993 143.801 150.98L108.036 108.57C108.036 108.57 100.364 92.1038 107.294 92.2666Z" fill="#231F20"/>
<path d="M145.471 151.433C144.894 151.432 144.318 151.394 143.746 151.32C143.646 151.306 143.555 151.258 143.491 151.186L107.735 108.775C107.712 108.752 107.694 108.726 107.681 108.697C107.456 108.209 102.089 96.599 104.757 93.0028C105.037 92.6296 105.42 92.3313 105.867 92.1384C106.314 91.9456 106.809 91.8652 107.302 91.9055H107.395C107.541 91.9409 122.585 95.6858 135.873 103.94C142.06 107.791 153.167 143.859 153.662 145.395C153.673 145.446 153.673 145.499 153.662 145.551C153.265 147.254 152.227 148.775 150.731 149.85C149.234 150.925 147.373 151.485 145.471 151.433ZM144.009 150.641C151.195 151.455 152.695 146.252 152.865 145.515C152.262 143.554 141.264 108.159 135.44 104.542C122.616 96.5706 108.153 92.84 107.24 92.6134H107.193C106.845 92.59 106.497 92.6502 106.182 92.7881C105.867 92.9259 105.597 93.1366 105.399 93.3992C103.04 96.5848 108.021 107.614 108.377 108.379L144.009 150.641Z" fill="#231F20"/>
<path d="M69.7431 107.784C69.7431 107.784 98.1131 97.2219 105.383 96.245C105.383 96.245 115.786 99.7845 121.131 108.803C126.475 117.822 108.678 152.545 108.678 152.545C105.75 154.13 102.293 154.688 98.9484 154.116L98.7164 117.772C98.7164 117.772 64.445 120.88 69.7431 107.784Z" fill="#231F20"/>
<path d="M101.54 154.697C100.644 154.696 99.7506 154.618 98.8712 154.463C98.7838 154.447 98.7053 154.404 98.6489 154.34C98.5926 154.277 98.5618 154.198 98.5618 154.116L98.3298 118.162C95.0658 118.424 75.1651 119.74 70.0217 113.638C68.6449 112.017 68.4748 110.007 69.3797 107.664C69.3983 107.617 69.4271 107.575 69.4644 107.54C69.5017 107.505 69.5466 107.477 69.5963 107.458C70.7564 107.026 98.09 96.8396 105.329 95.891C105.393 95.8772 105.459 95.8772 105.523 95.891C105.623 95.9264 116.119 99.5934 121.471 108.633C126.823 117.673 109.754 151.271 109.026 152.694C108.998 152.755 108.949 152.807 108.887 152.842C106.668 154.062 104.128 154.703 101.54 154.697ZM99.312 153.819C102.426 154.272 105.617 153.738 108.354 152.304C109.367 150.294 125.833 117.489 120.767 108.973C115.817 100.634 106.35 96.9812 105.298 96.606C98.2834 97.6112 72.3033 107.225 70.0139 108.053C69.2405 110.092 69.4261 111.819 70.594 113.206C75.8225 119.408 98.438 117.454 98.6391 117.454C98.6918 117.449 98.745 117.454 98.7955 117.469C98.846 117.484 98.8928 117.507 98.933 117.539C98.9738 117.572 99.0066 117.612 99.0292 117.657C99.0519 117.702 99.0639 117.751 99.0645 117.801L99.312 153.819Z" fill="#231F20"/>
<path d="M120.489 123.761H120.419C120.318 123.744 120.229 123.692 120.17 123.615C120.111 123.538 120.086 123.443 120.102 123.351C121.1 118.155 122.129 109.957 120.876 108.669C116.753 104.506 106.513 97.5688 106.412 97.498C106.331 97.4428 106.277 97.3609 106.261 97.2696C106.245 97.1783 106.269 97.085 106.327 97.0095C106.389 96.9348 106.48 96.885 106.581 96.8705C106.682 96.8559 106.785 96.8779 106.868 96.9316C106.969 97.0024 117.271 104.011 121.448 108.194C123.389 110.148 121.154 122.119 120.891 123.478C120.874 123.563 120.824 123.638 120.749 123.69C120.675 123.743 120.582 123.768 120.489 123.761Z" fill="white"/>
<path d="M101.632 56.0925C101.632 56.0925 106.544 64.729 109.436 69.1676C112.329 73.6062 118.609 79.9703 118.609 79.9703C118.609 79.9703 140.854 87.2121 141 87.6015C141.147 87.9908 138.889 94.8363 138.889 94.8363C138.889 94.8363 115.554 93.3002 111.687 91.6295C107.82 89.9588 99.9924 81.7188 99.9924 81.7188L101.632 56.0925Z" fill="#4BBBFA"/>
<path d="M86.3257 60.5522L84.686 62.9167L86.4804 63.8936L86.6583 75.2201L91.1443 85.5343L91.3686 75.9917L87.6329 63.5679L88.7466 62.3716L86.3257 60.5522Z" fill="white"/>
<path d="M91.1443 85.8883C91.0668 85.8884 90.9911 85.8677 90.9264 85.8287C90.8618 85.7896 90.8111 85.7341 90.7807 85.6689L86.3025 75.3546C86.2989 75.3122 86.2989 75.2696 86.3025 75.2272L86.1323 64.0918L84.5158 63.2211C84.4275 63.1688 84.3639 63.0879 84.3379 62.9946C84.3256 62.9488 84.3241 62.9011 84.3334 62.8547C84.3427 62.8084 84.3627 62.7643 84.3921 62.7256L86.0318 60.3612C86.0609 60.3188 86.0993 60.2825 86.1446 60.2545C86.1898 60.2264 86.241 60.2073 86.2947 60.1983C86.3494 60.1912 86.4051 60.1944 86.4583 60.2078C86.5115 60.2212 86.5612 60.2445 86.6041 60.2762L89.025 62.0955C89.0645 62.1255 89.097 62.1624 89.1207 62.204C89.1444 62.2457 89.1589 62.2912 89.1632 62.338C89.1675 62.3847 89.1616 62.4318 89.1459 62.4765C89.1301 62.5212 89.1048 62.5625 89.0714 62.5982L88.0659 63.6529L91.7475 75.8997C91.7513 75.935 91.7513 75.9706 91.7475 76.0059L91.5155 85.5414C91.5134 85.6228 91.4807 85.701 91.4229 85.7629C91.3652 85.8248 91.2859 85.8666 91.1984 85.8812L91.1443 85.8883ZM87.045 75.1564L90.8039 83.7858L90.9896 76.0413L87.2616 63.6529C87.2468 63.5968 87.246 63.5384 87.2594 63.482C87.2728 63.4256 87.3 63.3727 87.3389 63.3273L88.1974 62.407L86.4185 61.0691L85.2274 62.7893L86.6815 63.5821C86.7379 63.6128 86.7846 63.6563 86.8172 63.7084C86.8497 63.7605 86.8669 63.8194 86.8671 63.8795L87.045 75.1564Z" fill="#231F20"/>
<path d="M77.3073 28.4487C77.7534 28.2929 78.2181 28.186 78.6917 28.1301C80.5789 27.9319 80.6099 28.3071 82.0639 27.1886C84.2822 25.5913 86.9809 24.6527 89.7984 24.4985C95.2125 24.1729 99.1494 26.6577 97.9118 32.0944C97.3168 34.2477 96.2367 36.2635 94.7407 38.0125C91.6469 41.8918 87.3698 45.4031 82.1568 45.7995C80.6099 45.9057 77.7095 45.7995 76.588 44.6456C74.9947 42.992 73.8931 40.991 73.3892 38.835C72.8853 36.679 72.996 34.4406 73.7107 32.3351C73.9961 31.4334 74.4717 30.5917 75.1107 29.8574C75.7042 29.2287 76.459 28.7446 77.3073 28.4487Z" fill="black"/>
<path d="M81.2055 46.1464C79.8287 46.1464 77.3924 45.9765 76.2786 44.8438C74.645 43.1485 73.5163 41.0963 73.0014 38.8855C72.4866 36.6746 72.6031 34.3796 73.3395 32.2219C73.6398 31.2772 74.1419 30.3966 74.8168 29.6309C75.8032 28.5884 77.1856 27.9279 78.684 27.7833C79.0742 27.739 79.4666 27.713 79.8597 27.7054C80.6331 27.7054 80.8729 27.7054 81.8474 26.9196C84.1149 25.266 86.8881 24.2987 89.783 24.1517C92.9773 23.9606 95.5683 24.7251 97.0766 26.2754C98.4223 27.6912 98.8477 29.7159 98.2986 32.1298C97.7066 34.3359 96.6041 36.3999 95.0656 38.1824C92.3972 41.5662 88.004 45.6863 82.1955 46.0827C82.0485 46.1252 81.6927 46.1464 81.2055 46.1464ZM90.7034 24.8242C90.4095 24.8242 90.1078 24.8242 89.7984 24.8242C87.0621 24.9843 84.4445 25.9056 82.296 27.4647C81.9856 27.7745 81.606 28.0196 81.1829 28.1832C80.7599 28.3469 80.3033 28.4254 79.8442 28.4133C79.558 28.4133 79.2022 28.4133 78.7227 28.4841C78.2803 28.5337 77.8464 28.6336 77.431 28.7814C76.6452 29.0539 75.946 29.5017 75.3969 30.084C74.7878 30.7827 74.3333 31.5834 74.0588 32.4413C73.369 34.4851 73.2664 36.6571 73.7609 38.7477C74.2554 40.8383 75.3303 42.777 76.8819 44.3766C77.7636 45.2757 80.2232 45.5518 82.1336 45.4102C87.6405 45.035 91.8635 41.0636 94.4314 37.8072C95.9013 36.1033 96.9562 34.1313 97.5252 32.0236C98.0202 29.8291 97.6566 28.0169 96.4733 26.771C95.2899 25.525 93.2325 24.8242 90.7034 24.8242Z" fill="#231F20"/>
<path d="M91.3765 49.9762V57.4517C91.3765 57.4517 89.4583 61.5646 84.1138 60.3258C78.7693 59.087 78.1196 55.5616 78.1196 55.5616L78.3594 41.7078C78.3594 41.7078 82.3581 39.8106 81.2908 31.9033C85.6583 33.6778 90.4674 34.3429 95.2128 33.8288C95.2128 33.8288 96.8525 42.4724 96.2801 46.2809C95.7 49.9904 91.4461 49.9266 91.3765 49.9762Z" fill="white"/>
<path d="M86.0395 60.9132C85.358 60.9076 84.6799 60.8244 84.0209 60.6655C78.4985 59.3771 77.7637 55.7738 77.7405 55.6252L77.9725 41.7218C77.9747 41.6578 77.9951 41.5953 78.0317 41.5407C78.0683 41.4861 78.1199 41.4412 78.1813 41.4104C78.1813 41.4104 81.9248 39.4919 80.9116 31.9669C80.9004 31.903 80.9098 31.8375 80.9386 31.7784C80.9675 31.7193 81.0145 31.6692 81.074 31.6342C81.1334 31.601 81.2017 31.5835 81.2713 31.5835C81.3408 31.5835 81.4091 31.601 81.4685 31.6342C85.7649 33.3652 90.4875 34.0176 95.1507 33.5243C95.2484 33.5156 95.3461 33.5405 95.4247 33.5942C95.5034 33.6478 95.5573 33.7264 95.5761 33.8145C95.638 34.1685 97.2158 42.5572 96.6357 46.3799C96.3032 48.6381 94.5706 50.0327 91.763 50.3229V57.4799C91.7711 57.5244 91.7711 57.5698 91.763 57.6144C91.2412 58.5989 90.4283 59.4298 89.4167 60.0129C88.405 60.5959 87.2351 60.9079 86.0395 60.9132ZM78.746 41.9271L78.5062 55.5685C78.5062 55.6393 79.1946 58.8107 84.2142 59.9788C88.8549 61.069 90.7266 57.8551 90.9896 57.3737V49.9761C90.9889 49.9235 91.0011 49.8714 91.0252 49.8236C91.0492 49.7759 91.0847 49.7336 91.1288 49.7C91.2335 49.6351 91.3583 49.6028 91.4846 49.6079C94.0602 49.3956 95.5761 48.2346 95.87 46.2525C96.365 42.9607 95.1585 35.8462 94.8723 34.218C90.4008 34.6453 85.8834 34.0519 81.7237 32.4907C82.4585 39.138 79.5658 41.4174 78.746 41.9271Z" fill="#231F20"/>
<path d="M81.5226 41.5237C81.3492 40.8469 80.9391 40.2404 80.3547 39.7964C79.793 39.4064 79.1626 39.1071 78.4907 38.9115C78.135 38.7698 77.7493 38.7021 77.3615 38.7133C77.0885 38.7489 76.8257 38.833 76.588 38.9611C76.006 39.2126 75.5421 39.6473 75.2809 40.1857C75.1235 40.6436 75.0916 41.1298 75.1881 41.6016C75.2489 42.1129 75.3815 42.6149 75.5826 43.0952C75.7927 43.5741 76.1052 44.0097 76.5016 44.3767C76.898 44.7436 77.3704 45.0345 77.8911 45.2323C78.4119 45.43 78.9705 45.5307 79.5343 45.5284C80.0981 45.5262 80.6557 45.4209 81.1746 45.219" fill="white"/>
<path d="M79.4962 45.8348C78.5805 45.8332 77.6857 45.5836 76.9246 45.1176C76.1635 44.6515 75.5701 43.9897 75.219 43.2156C74.9997 42.7074 74.8591 42.1737 74.8014 41.6299C74.6958 41.1058 74.733 40.5661 74.9097 40.0583C75.2044 39.4394 75.7311 38.9373 76.3947 38.6425C76.6719 38.491 76.9797 38.3923 77.2996 38.3523C77.7478 38.3344 78.1947 38.4094 78.6067 38.5717C79.32 38.7813 79.9894 39.0996 80.5868 39.5132C81.232 40.0085 81.6851 40.6815 81.8784 41.4317C81.891 41.4768 81.8935 41.5238 81.8859 41.5698C81.8782 41.6158 81.8605 41.66 81.8338 41.6996C81.8071 41.7393 81.7719 41.7736 81.7304 41.8005C81.6889 41.8274 81.6419 41.8464 81.5922 41.8564C81.4928 41.8777 81.3881 41.8621 81.3012 41.813C81.2142 41.7639 81.152 41.6854 81.1282 41.5945C80.9714 40.994 80.6081 40.4555 80.0918 40.0583C79.561 39.6964 78.9674 39.4188 78.336 39.2371C78.0377 39.1122 77.7128 39.0493 77.3847 39.0531C77.1654 39.0865 76.9552 39.1587 76.7659 39.2655C76.2699 39.4787 75.8687 39.8409 75.629 40.2919C75.5071 40.693 75.486 41.1141 75.5671 41.5237C75.6167 42.0094 75.7417 42.4861 75.9383 42.9395C76.1336 43.3704 76.42 43.7617 76.781 44.0909C77.1421 44.4201 77.5706 44.6808 78.0421 44.8579C78.9971 45.2118 80.0649 45.2118 81.0199 44.8579C81.0659 44.8383 81.1158 44.8275 81.1665 44.8262C81.2172 44.8249 81.2677 44.8331 81.3148 44.8503C81.3619 44.8676 81.4047 44.8935 81.4404 44.9265C81.4761 44.9594 81.5041 44.9987 81.5226 45.042C81.5431 45.0847 81.5541 45.1308 81.5551 45.1774C81.5561 45.2241 81.547 45.2705 81.5283 45.3139C81.5096 45.3573 81.4817 45.3969 81.4462 45.4304C81.4107 45.464 81.3684 45.4907 81.3215 45.5092C80.7433 45.7294 80.1224 45.8401 79.4962 45.8348Z" fill="#231F20"/>
<path d="M91.0593 38.8195C91.0593 38.8195 93.9674 42.5997 93.3177 43.2793C92.668 43.9589 90.7886 43.5554 90.7886 43.5554" fill="white"/>
<path d="M91.9332 44.0296C91.5196 44.0265 91.1074 43.9838 90.7035 43.9022C90.6527 43.8919 90.6046 43.8726 90.562 43.8454C90.5193 43.8182 90.4829 43.7835 90.4549 43.7434C90.4269 43.7033 90.4078 43.6586 90.3987 43.6117C90.3896 43.5649 90.3907 43.5168 90.4018 43.4703C90.413 43.4238 90.4341 43.3798 90.4638 43.3408C90.4936 43.3018 90.5314 43.2685 90.5753 43.2429C90.6191 43.2172 90.668 43.1997 90.7192 43.1914C90.7703 43.1831 90.8228 43.184 90.8736 43.1942C91.5156 43.3288 92.668 43.3995 93.0238 43.0244C93.1862 42.6775 92.1189 40.7944 90.7035 39.0034C90.6512 38.9264 90.6333 38.8339 90.6533 38.7451C90.6734 38.6563 90.73 38.5779 90.8113 38.5261C90.8927 38.4744 90.9926 38.4532 91.0906 38.4669C91.1885 38.4806 91.277 38.5283 91.3377 38.5999C92.4901 40.0936 94.3077 42.7129 93.573 43.4916C93.3534 43.6778 93.095 43.8215 92.8132 43.9139C92.5314 44.0064 92.2321 44.0457 91.9332 44.0296Z" fill="#231F20"/>
<path d="M89.4479 38.0371C89.481 37.5454 89.1968 37.1292 88.8131 37.1076C88.4294 37.0859 88.0914 37.4669 88.0583 37.9586C88.0252 38.4503 88.3094 38.8664 88.6931 38.8881C89.0768 38.9098 89.4147 38.5287 89.4479 38.0371Z" fill="#231F20"/>
<path d="M94.7876 38.9016C95.1711 38.877 95.4514 38.4586 95.4136 37.9672C95.3759 37.4758 95.0344 37.0974 94.6509 37.1221C94.2674 37.1468 93.9871 37.5651 94.0249 38.0565C94.0626 38.5479 94.4041 38.9263 94.7876 38.9016Z" fill="#231F20"/>
<path d="M91.1986 46.2949C89.5898 46.2949 87.4783 46.0683 86.0861 45.0419C86.0059 44.9822 85.9545 44.8961 85.9429 44.8021C85.9313 44.7081 85.9605 44.6137 86.0242 44.5393C86.0557 44.5029 86.0949 44.4726 86.1395 44.4504C86.184 44.4281 86.233 44.4142 86.2835 44.4096C86.334 44.405 86.3849 44.4097 86.4334 44.4235C86.4819 44.4372 86.5268 44.4597 86.5656 44.4897C88.7699 46.1108 93.3023 45.4525 93.3487 45.4454C93.4513 45.4304 93.5562 45.4532 93.6403 45.509C93.7244 45.5648 93.7809 45.6488 93.7973 45.7427C93.8137 45.8366 93.7887 45.9326 93.7278 46.0096C93.6669 46.0866 93.575 46.1383 93.4725 46.1533C92.7195 46.2527 91.9593 46.3001 91.1986 46.2949Z" fill="#231F20"/>
<path d="M96.4347 42.7554C95.6738 42.7576 94.9217 42.607 94.2313 42.3144C93.5408 42.0217 92.9289 41.5941 92.4385 41.0616C91.9482 40.5291 91.5913 39.9047 91.3931 39.2323C91.1949 38.56 91.1601 37.856 91.2913 37.17C91.5328 35.9274 92.3024 34.823 93.4317 34.0985C94.5609 33.3741 95.9578 33.0887 97.3164 33.3049C98.6068 33.5 99.7695 34.1332 100.572 35.0782C101.375 36.0231 101.759 37.2104 101.648 38.4032C101.537 39.5959 100.938 40.7064 99.972 41.5131C99.0056 42.3198 97.7426 42.7634 96.4347 42.7554ZM92.057 37.2975C91.9044 38.0875 92.0116 38.9012 92.365 39.6353C92.7184 40.3695 93.3021 40.991 94.0421 41.421C94.7821 41.851 95.6449 42.0702 96.5212 42.0506C97.3975 42.0311 98.2476 41.7738 98.9639 41.3113C99.4415 41.0047 99.8484 40.6149 100.161 40.1643C100.474 39.7137 100.687 39.211 100.788 38.6851C100.888 38.1591 100.875 37.6202 100.747 37.0991C100.62 36.578 100.382 36.0849 100.047 35.648C99.5424 34.9923 98.8372 34.4881 98.02 34.199C97.2028 33.91 96.3103 33.8491 95.4553 34.0241C94.6003 34.1991 93.8212 34.6021 93.2163 35.1822C92.6115 35.7623 92.208 36.4935 92.057 37.2833V37.2975Z" fill="#231F20"/>
<path d="M86.3336 42.4158C86.0303 42.4168 85.7274 42.3931 85.4287 42.345C84.7362 42.257 84.0703 42.0423 83.4705 41.7136C82.8707 41.3849 82.3494 40.949 81.9377 40.4319C81.526 39.9148 81.2323 39.3271 81.0742 38.7039C80.916 38.0806 80.8966 37.4346 81.0172 36.8043C81.1378 36.1741 81.3958 35.5725 81.7759 35.0356C82.156 34.4986 82.6504 34.0372 83.2296 33.6789C83.8088 33.3206 84.4609 33.0727 85.147 32.9501C85.8331 32.8275 86.5392 32.8326 87.2231 32.9652C88.2359 33.1283 89.1733 33.5623 89.9169 34.2125C90.6605 34.8627 91.177 35.7 91.4013 36.6186C91.6255 37.5372 91.5474 38.4961 91.1768 39.3741C90.8063 40.2521 90.1598 41.01 89.3191 41.5521C88.4441 42.1132 87.4019 42.4147 86.3336 42.4158ZM86.3336 33.6023C85.5258 33.6056 84.7344 33.8109 84.0448 34.1959C83.3553 34.581 82.7938 35.1313 82.4211 35.7872C82.0485 36.4432 81.8788 37.1799 81.9304 37.9177C81.982 38.6555 82.2529 39.3664 82.7139 39.9735C83.0481 40.4116 83.4738 40.7848 83.9663 41.0716C84.4589 41.3584 85.0086 41.5532 85.5838 41.6447C86.159 41.7361 86.7483 41.7225 87.3177 41.6046C87.8871 41.4866 88.4253 41.2667 88.9014 40.9575C89.379 40.6509 89.786 40.2611 90.0989 39.8105C90.4118 39.3599 90.6247 38.8572 90.7252 38.3313C90.8258 37.8053 90.8121 37.2664 90.685 36.7453C90.5578 36.2241 90.3197 35.7311 89.9843 35.2942C89.5773 34.7582 89.0334 34.3212 88.3998 34.0214C87.7662 33.7216 87.0623 33.568 86.3491 33.574L86.3336 33.6023Z" fill="#231F20"/>
<path d="M91.3763 49.9761C91.3763 49.9761 86.2947 51.0521 83.3015 49.4948C83.3015 49.4948 86.6119 55.7597 91.3763 55.1085V49.9761Z" fill="#231F20"/>
<path d="M90.6649 55.5048C86.1016 55.5048 83.0852 49.8911 82.9305 49.6433C82.8913 49.5763 82.8783 49.499 82.8938 49.4243C82.9093 49.3496 82.9523 49.282 83.0156 49.2327C83.074 49.1805 83.1496 49.1473 83.2307 49.1383C83.3118 49.1294 83.3939 49.1451 83.4642 49.1832C86.295 50.6627 91.1986 49.6433 91.2605 49.6362C91.3171 49.6234 91.3762 49.6225 91.4333 49.6335C91.4903 49.6446 91.544 49.6673 91.5901 49.7C91.6362 49.7327 91.6737 49.7745 91.6996 49.8223C91.7256 49.8701 91.7394 49.9227 91.74 49.976V55.1013C91.7391 55.186 91.705 55.2675 91.644 55.3312C91.583 55.3948 91.4991 55.4363 91.4075 55.4482C91.1618 55.4833 90.9136 55.5022 90.6649 55.5048ZM84.2067 50.2451C85.274 51.8449 87.8032 54.9951 90.9898 54.7827V50.415C89.8064 50.6132 86.6894 51.0167 84.2067 50.2451Z" fill="#231F20"/>
<path d="M63.7336 54.4502C59.5802 55.1581 42.7577 90.7234 48.5199 94.8009C57.5073 101.172 88.7777 94.7301 88.7777 94.7301L86.2331 83.6868C86.2331 83.6868 66.1235 84.2036 65.8373 80.4233C65.5512 76.6431 77.5318 59.1861 75.9617 56.5385C74.3916 53.891 63.7336 54.4502 63.7336 54.4502Z" fill="#4BBBFA"/>
<path d="M73.5328 98.3758C73.4821 98.38 73.4309 98.375 73.3822 98.3611C73.3335 98.3471 73.2883 98.3246 73.2492 98.2947C73.2101 98.2648 73.1777 98.2281 73.1541 98.1867C73.1304 98.1454 73.1159 98.1002 73.1113 98.0537C73.1067 98.0072 73.1122 97.9604 73.1274 97.9158C73.1426 97.8713 73.1673 97.8299 73.2 97.7941C73.2327 97.7583 73.2727 97.7287 73.3179 97.707C73.3631 97.6854 73.4125 97.6721 73.4632 97.6679L82.9225 96.1813L83.2164 86.0936L65.4271 84.4159C65.3714 84.4124 65.3172 84.3971 65.2689 84.3713C65.2206 84.3456 65.1795 84.3099 65.1487 84.2672C65.1158 84.2246 65.0939 84.1757 65.0845 84.1242C65.0751 84.0727 65.0786 84.02 65.0946 83.9699L73.0146 59.1153C73.0434 59.0251 73.11 58.9492 73.1999 58.904C73.2899 58.8589 73.3957 58.8483 73.4942 58.8746C73.5915 58.9024 73.6732 58.9637 73.7223 59.0455C73.7713 59.1274 73.7838 59.2234 73.7571 59.3135L66.0227 83.7646L83.665 85.4282C83.762 85.4371 83.8519 85.4792 83.9164 85.5462C83.981 85.6131 84.0155 85.7 84.013 85.7892L83.7036 96.4928C83.7012 96.5752 83.6674 96.6542 83.6081 96.7162C83.5488 96.7783 83.4677 96.8194 83.3788 96.8326L73.6102 98.3758H73.5328Z" fill="#231F20"/>
<path d="M84.0363 87.3748C87.3802 87.5596 90.7362 87.41 94.0447 86.9289C96.4876 86.3859 98.9946 86.122 101.508 86.1431C104.826 86.2898 108.088 86.9728 111.146 88.1606C111.272 88.1977 111.384 88.2663 111.47 88.3588C111.764 88.734 111.06 89.0667 110.558 89.1163C109.228 89.1445 107.901 88.9894 106.621 88.6561C109.784 89.7303 112.775 91.1874 115.516 92.9885C115.833 93.1938 116.173 93.5124 116.018 93.838C115.864 94.1637 115.245 94.1 114.819 93.9301L107.626 90.9215C109.49 91.5994 111.218 92.5563 112.739 93.7531C112.955 93.9301 113.187 94.1566 113.126 94.4185C113.025 94.8574 112.306 94.7725 111.857 94.5742C109.671 93.5773 107.582 92.4097 105.615 91.0843L110.055 94.192C110.109 94.5247 109.73 94.8079 109.359 94.822C108.992 94.7984 108.639 94.6833 108.338 94.4893L103.388 91.87L106.482 93.8522C106.969 94.1637 107.518 94.6663 107.255 95.1618C106.992 95.6573 106.025 95.5653 105.383 95.3034C102.834 94.2904 100.17 93.5401 97.4401 93.0664C96.4849 92.7786 95.4957 92.5956 94.4933 92.5213C92.9636 92.6958 91.4544 92.9967 89.9841 93.4204C87.7488 93.8805 85.5136 94.3548 83.2783 94.8362" fill="white"/>
<path d="M106.497 95.8839C106.069 95.8643 105.649 95.7706 105.26 95.6078C102.736 94.6007 100.098 93.8551 97.3937 93.385C97.0534 93.3283 96.7208 93.2363 96.3883 93.1514C95.7911 92.9613 95.1642 92.8609 94.532 92.854C93.4995 92.934 92.4799 93.1192 91.4923 93.4062C91.0128 93.5265 90.541 93.6469 90.0847 93.7389C87.8494 94.2061 85.6142 94.6734 83.3789 95.1547C83.2878 95.1721 83.1929 95.1568 83.1138 95.112C83.0347 95.0672 82.9773 94.9964 82.9535 94.914C82.9421 94.8727 82.9398 94.8296 82.9469 94.7874C82.954 94.7452 82.9703 94.7047 82.9949 94.6684C83.0194 94.6321 83.0517 94.6006 83.0897 94.5759C83.1278 94.5513 83.1709 94.5338 83.2165 94.5247C85.4517 94.0433 87.6947 93.5761 89.93 93.1089C90.3709 93.0169 90.8349 92.9036 91.3067 92.7832C92.3466 92.4793 93.4208 92.2846 94.5088 92.2028C95.2133 92.2189 95.9115 92.3286 96.5816 92.5284C96.8987 92.6133 97.2081 92.6983 97.5329 92.7549C100.29 93.2306 102.981 93.9881 105.554 95.0132C105.923 95.2002 106.352 95.2652 106.768 95.1972C106.809 95.1855 106.848 95.1654 106.88 95.1385C106.912 95.1115 106.937 95.0784 106.954 95.0415C107.116 94.7017 106.474 94.2557 106.273 94.1212L103.179 92.1461C103.104 92.0974 103.051 92.0242 103.032 91.9413C103.014 91.8585 103.03 91.7722 103.079 91.7001C103.129 91.6303 103.207 91.5811 103.297 91.5626C103.386 91.5441 103.48 91.5579 103.558 91.601L108.508 94.2203C108.751 94.3858 109.041 94.4841 109.343 94.5035C109.403 94.5002 109.461 94.4859 109.514 94.4616C109.567 94.4373 109.614 94.4034 109.653 94.3619L105.376 91.3674C105.332 91.3442 105.295 91.3128 105.266 91.2754C105.237 91.238 105.217 91.1954 105.207 91.1504C105.197 91.1054 105.198 91.059 105.209 91.0142C105.22 90.9695 105.242 90.9274 105.272 90.8908C105.302 90.8541 105.34 90.8237 105.384 90.8015C105.428 90.7794 105.477 90.766 105.527 90.7622C105.577 90.7584 105.627 90.7643 105.674 90.7796C105.721 90.7948 105.765 90.819 105.801 90.8507C107.75 92.1663 109.821 93.3245 111.989 94.3123C112.209 94.4268 112.468 94.4622 112.716 94.4114C112.762 94.3406 112.716 94.2415 112.476 94.0292C111.436 93.2026 110.293 92.4899 109.073 91.9054L107.449 91.1975C107.373 91.1578 107.316 91.094 107.288 91.0183C107.26 90.9425 107.264 90.8601 107.298 90.7867C107.333 90.7133 107.395 90.654 107.474 90.6201C107.553 90.5862 107.643 90.5801 107.727 90.6029C108.292 90.8082 108.841 91.0418 109.382 91.3108L114.935 93.6398C115.144 93.7417 115.383 93.779 115.616 93.746C115.709 93.6186 115.546 93.4204 115.284 93.2505C112.567 91.4662 109.602 90.0234 106.466 88.9605C106.381 88.9318 106.311 88.8733 106.272 88.7979C106.233 88.7224 106.227 88.6359 106.257 88.557C106.286 88.4774 106.347 88.411 106.427 88.3714C106.508 88.3319 106.602 88.3223 106.691 88.3447C107.931 88.6723 109.22 88.8228 110.511 88.7906C110.632 88.7905 110.752 88.7671 110.863 88.722C110.973 88.6768 111.072 88.611 111.153 88.5287L110.975 88.4579C107.959 87.2816 104.737 86.6056 101.462 86.4616C99.2841 86.4281 97.1099 86.6397 94.9883 87.0917L94.0757 87.2474C90.7516 87.7285 87.3805 87.8804 84.0209 87.7005C83.9741 87.6986 83.9282 87.6884 83.8858 87.6703C83.8434 87.6523 83.8053 87.6267 83.7737 87.5952C83.7421 87.5636 83.7176 87.5266 83.7016 87.4864C83.6856 87.4462 83.6785 87.4034 83.6806 87.3607C83.6804 87.3179 83.69 87.2756 83.7085 87.2364C83.727 87.1971 83.7542 87.1618 83.7883 87.1326C83.8224 87.1033 83.8627 87.0809 83.9067 87.0665C83.9507 87.0522 83.9975 87.0463 84.0441 87.0492C87.3595 87.2291 90.6864 87.082 93.9674 86.6103L94.88 86.4546C97.0547 85.9911 99.2838 85.7771 101.516 85.8174C104.876 85.967 108.181 86.6596 111.277 87.8633C111.463 87.9211 111.627 88.0268 111.749 88.1677C111.824 88.2603 111.87 88.3703 111.881 88.4853C111.892 88.6003 111.867 88.7158 111.811 88.819C111.671 89.0059 111.484 89.1593 111.266 89.2665C111.048 89.3737 110.805 89.4314 110.558 89.4348C110.217 89.4348 109.877 89.4348 109.545 89.4348C111.715 90.3546 113.787 91.4591 115.732 92.7337C116.32 93.116 116.544 93.569 116.351 93.9725C116.309 94.0622 116.248 94.143 116.171 94.21C116.094 94.277 116.002 94.3287 115.902 94.3619C115.492 94.457 115.057 94.4117 114.68 94.2345L112.955 93.5265C113.124 93.6343 113.259 93.7804 113.347 93.9505C113.435 94.1205 113.474 94.3087 113.458 94.4964C113.434 94.6015 113.383 94.7001 113.311 94.7847C113.239 94.8693 113.146 94.9378 113.041 94.9848C112.819 95.0547 112.584 95.0808 112.35 95.0612C112.117 95.0417 111.891 94.9771 111.687 94.8716C111.254 94.6804 110.828 94.4751 110.395 94.2628C110.398 94.4549 110.324 94.6412 110.187 94.7866C110.084 94.8967 109.957 94.9862 109.815 95.0496C109.672 95.1129 109.517 95.1487 109.359 95.1547C108.924 95.1409 108.503 95.0131 108.145 94.7866L107.549 94.4681C107.618 94.5984 107.653 94.7411 107.653 94.8857C107.653 95.0303 107.618 95.1731 107.549 95.3034C107.496 95.4185 107.418 95.5225 107.32 95.609C107.221 95.6954 107.105 95.7625 106.977 95.806C106.823 95.8561 106.661 95.8824 106.497 95.8839Z" fill="#231F20"/>
<path d="M97.3938 60.5593C97.3938 60.5593 101.075 74.2998 104.355 84.076L97.3938 60.5593Z" fill="white"/>
<path d="M104.386 84.3946C104.311 84.3945 104.238 84.3724 104.179 84.3316C104.119 84.2908 104.075 84.2335 104.053 84.1681C100.774 74.5051 97.0921 60.8071 97.0457 60.6372C97.0342 60.5954 97.0319 60.5519 97.0389 60.5092C97.0459 60.4665 97.0621 60.4256 97.0866 60.3887C97.111 60.3518 97.1433 60.3197 97.1814 60.2943C97.2195 60.2689 97.2628 60.2508 97.3087 60.2408C97.3999 60.2216 97.4957 60.2361 97.5754 60.2812C97.655 60.3263 97.712 60.3982 97.7341 60.4815C97.7727 60.616 101.454 74.3282 104.695 83.9769C104.722 84.0586 104.712 84.1466 104.669 84.2221C104.626 84.2975 104.552 84.3544 104.463 84.3805C104.438 84.3887 104.412 84.3935 104.386 84.3946Z" fill="#231F20"/>
<path d="M141.55 100.655L141.356 102.581L94.0447 108.909L94.5165 106.892L141.55 100.655Z" fill="white"/>
<path d="M94.0447 109.263C93.9911 109.263 93.9382 109.253 93.8891 109.233C93.84 109.214 93.7956 109.185 93.7585 109.15C93.716 109.109 93.6853 109.059 93.6691 109.005C93.6529 108.951 93.6517 108.894 93.6657 108.839L94.1375 106.814C94.157 106.744 94.198 106.681 94.2556 106.632C94.3132 106.583 94.385 106.551 94.4623 106.538L141.496 100.308C141.553 100.302 141.61 100.306 141.665 100.322C141.72 100.338 141.77 100.365 141.813 100.4C141.855 100.438 141.888 100.483 141.909 100.533C141.93 100.583 141.94 100.637 141.936 100.691L141.743 102.609C141.735 102.688 141.699 102.762 141.641 102.819C141.582 102.877 141.503 102.915 141.418 102.928L94.0988 109.299L94.0447 109.263ZM94.8181 107.203L94.5165 108.485L140.977 102.269L141.093 101.073L94.8181 107.203Z" fill="#231F20"/>
<path d="M141.55 100.655C141.55 100.655 130.776 92.2028 130.42 92.2807C130.064 92.3586 81.6929 97.6679 81.6929 97.6679L94.5398 106.871L141.55 100.655Z" fill="white"/>
<path d="M94.5165 107.246C94.4315 107.246 94.3492 107.218 94.2845 107.168L81.4298 97.9651C81.3695 97.9218 81.3247 97.8631 81.3009 97.7965C81.2771 97.7299 81.2754 97.6583 81.2961 97.5908C81.3169 97.5233 81.359 97.463 81.4172 97.4175C81.4754 97.3719 81.5471 97.3432 81.6232 97.335C82.1027 97.2855 129.577 92.0753 130.35 91.9549C130.567 91.9124 130.884 91.8346 141.805 100.407C141.861 100.452 141.903 100.51 141.925 100.575C141.947 100.64 141.948 100.71 141.929 100.775C141.907 100.841 141.866 100.899 141.81 100.944C141.754 100.989 141.685 101.019 141.612 101.03L94.5861 107.26L94.5165 107.246ZM82.6441 97.9155L94.6248 106.517L140.652 100.421C136.785 97.4129 131.201 93.0947 130.366 92.6345C127.844 92.9601 92.173 96.8678 82.6441 97.9155Z" fill="#231F20"/>
<path d="M94.0448 108.909L81.4763 99.5862L81.6697 97.6678L94.5166 106.892L94.0448 108.909Z" fill="white"/>
<path d="M94.0449 109.263C93.9552 109.263 93.8681 109.236 93.7974 109.186L81.2366 99.8624C81.1877 99.8257 81.149 99.7791 81.1234 99.7262C81.0979 99.6733 81.0863 99.6157 81.0897 99.558L81.283 97.6324C81.2911 97.5696 81.3171 97.5099 81.3584 97.4591C81.3997 97.4084 81.4549 97.3685 81.5183 97.3434C81.5818 97.3183 81.6513 97.3089 81.7199 97.3162C81.7886 97.3234 81.854 97.347 81.9095 97.3847L94.7564 106.587C94.813 106.629 94.8558 106.684 94.8804 106.747C94.905 106.809 94.9102 106.876 94.8957 106.941L94.4239 108.966C94.4087 109.025 94.3772 109.079 94.3326 109.124C94.2879 109.169 94.2314 109.202 94.1686 109.221C94.1307 109.242 94.0887 109.257 94.0449 109.263ZM81.8786 99.4305L93.7974 108.251L94.0913 107.012L81.9869 98.3404L81.8786 99.4305Z" fill="#231F20"/>
<path d="M141.55 100.655L150.638 72.7707L100.766 80.5506L94.5164 106.892L141.55 100.655Z" fill="white"/>
<path d="M94.5165 107.246C94.4641 107.245 94.4124 107.235 94.3645 107.215C94.3167 107.196 94.2736 107.168 94.238 107.133C94.1957 107.09 94.1646 107.039 94.1472 106.984C94.1298 106.929 94.1264 106.871 94.1375 106.814L100.387 80.4799C100.402 80.4105 100.439 80.3469 100.494 80.2976C100.55 80.2482 100.62 80.2155 100.696 80.2038L150.576 72.4169C150.64 72.4054 150.707 72.4095 150.769 72.4288C150.832 72.4481 150.887 72.482 150.931 72.527C150.975 72.5719 151.005 72.6266 151.019 72.6855C151.032 72.7444 151.029 72.8055 151.009 72.8628L141.921 100.754C141.897 100.818 141.855 100.874 141.799 100.918C141.744 100.962 141.676 100.991 141.604 101.002L94.5783 107.232L94.5165 107.246ZM101.091 80.8622L95.0192 106.467L141.248 100.337L150.088 73.2168L101.091 80.8622Z" fill="#231F20"/>
<path d="M168.288 58.7966C168.193 58.797 168.102 58.7654 168.032 58.7078C167.962 58.6502 167.918 58.5708 167.909 58.4851C167.646 56.1419 169.556 53.2608 169.641 53.1404C169.667 53.1003 169.702 53.0653 169.743 53.0374C169.784 53.0096 169.831 52.9895 169.881 52.9784C169.93 52.9672 169.982 52.9651 170.032 52.9722C170.083 52.9794 170.131 52.9957 170.175 53.0201C170.261 53.071 170.321 53.1503 170.344 53.2414C170.368 53.3325 170.351 53.4283 170.299 53.5085C170.299 53.5085 168.442 56.3401 168.674 58.4072C168.68 58.4538 168.675 58.5008 168.66 58.5456C168.646 58.5904 168.621 58.6322 168.589 58.6684C168.557 58.7046 168.517 58.7345 168.472 58.7565C168.427 58.7786 168.377 58.7922 168.326 58.7966H168.288Z" fill="#231F20"/>
<path d="M199.914 96.0255C199.84 96.0242 199.768 96.0046 199.705 95.9688L191.066 90.8861C190.978 90.8354 190.917 90.7551 190.894 90.6628C190.872 90.5705 190.89 90.4739 190.946 90.3941C191.001 90.3143 191.089 90.2579 191.19 90.2373C191.29 90.2167 191.396 90.2336 191.483 90.2843L200.123 95.3671C200.209 95.4192 200.27 95.5004 200.292 95.5931C200.313 95.6858 200.294 95.7827 200.239 95.8627C200.202 95.9112 200.154 95.9513 200.097 95.9796C200.041 96.0078 199.978 96.0236 199.914 96.0255Z" fill="#D8DCEE"/>
<path d="M203.038 94.7512C202.965 94.7531 202.893 94.736 202.83 94.7016L194.623 89.8454C194.537 89.7938 194.477 89.7129 194.456 89.6207C194.435 89.5284 194.455 89.4322 194.511 89.3534C194.568 89.2745 194.656 89.2194 194.757 89.2002C194.858 89.1809 194.963 89.1991 195.049 89.2508L203.247 94.0716C203.334 94.1237 203.395 94.2049 203.416 94.2976C203.438 94.3903 203.419 94.4871 203.363 94.5671C203.33 94.6201 203.283 94.6646 203.226 94.6967C203.17 94.7289 203.105 94.7476 203.038 94.7512Z" fill="#D8DCEE"/>
<path d="M206.047 93.8097C205.974 93.8074 205.902 93.7879 205.838 93.753L197.539 88.8826C197.453 88.831 197.393 88.7501 197.372 88.6579C197.351 88.5656 197.371 88.4695 197.427 88.3906C197.484 88.3118 197.572 88.2567 197.673 88.2374C197.774 88.2182 197.879 88.2364 197.965 88.288L206.233 93.1584C206.319 93.2092 206.379 93.2891 206.401 93.3807C206.423 93.4722 206.404 93.5679 206.349 93.6468C206.317 93.6946 206.273 93.7344 206.22 93.7629C206.168 93.7913 206.108 93.8073 206.047 93.8097Z" fill="#D8DCEE"/>
<path d="M209.829 92.8753C209.761 92.8766 209.694 92.8593 209.636 92.8258L200.734 88.0262C200.684 88.0058 200.64 87.9761 200.604 87.9392C200.568 87.9022 200.541 87.8587 200.525 87.8115C200.508 87.7644 200.503 87.7146 200.508 87.6653C200.514 87.6161 200.531 87.5685 200.558 87.5257C200.586 87.4829 200.622 87.4458 200.666 87.4168C200.71 87.3878 200.76 87.3675 200.813 87.3573C200.866 87.3471 200.921 87.3471 200.974 87.3575C201.027 87.3678 201.077 87.3882 201.12 87.4174L210.023 92.217C210.095 92.2564 210.152 92.3165 210.184 92.388C210.215 92.4596 210.221 92.5387 210.199 92.6133C210.177 92.6879 210.129 92.7539 210.062 92.8012C209.995 92.8485 209.914 92.8745 209.829 92.8753Z" fill="#D8DCEE"/>
<path d="M212.529 92.0328C212.458 92.0342 212.388 92.017 212.328 91.9833L203.425 87.1837C203.338 87.1339 203.276 87.0551 203.251 86.9639C203.227 86.8727 203.242 86.7763 203.294 86.6952C203.318 86.6546 203.352 86.619 203.392 86.5907C203.433 86.5624 203.479 86.5419 203.528 86.5306C203.577 86.5194 203.629 86.5175 203.679 86.5251C203.729 86.5327 203.777 86.5496 203.82 86.5749L212.722 91.3745C212.795 91.4139 212.851 91.474 212.883 91.5455C212.915 91.6171 212.92 91.6962 212.898 91.7708C212.876 91.8454 212.828 91.9114 212.762 91.9587C212.695 92.006 212.613 92.0321 212.529 92.0328Z" fill="#D8DCEE"/>
</svg>
